<svg width="1326" height="545" viewBox="0 0 1326 545" fill="none" xmlns="http://www.w3.org/2000/svg">
<path d="M1326 493.19C1326 486.018 1287.97 479.676 1229.74 475.831C1230.17 475.127 1230.4 474.372 1230.41 473.607C1230.41 461.88 1175.36 452.372 1107.45 452.372C1039.55 452.372 984.495 461.88 984.495 473.607C984.496 474.017 984.564 474.425 984.697 474.823C917.092 478.503 871.646 485.349 871.646 493.19C871.646 498.707 894.118 503.723 930.96 507.499C926.895 509.732 924.674 512.135 924.674 514.642C924.674 526.372 973.138 535.88 1032.93 535.88C1063.2 535.88 1090.57 533.441 1110.21 529.509C1119.51 538.447 1149.93 545 1186.03 545C1229.52 545 1264.77 535.492 1264.77 523.762C1264.77 518.271 1257.04 513.268 1244.36 509.497C1294.25 505.601 1326 499.741 1326 493.19Z" fill="black"/>
<path d="M261.027 219.154C253.265 220.542 245.407 217.867 240.995 212.339C235.512 205.468 238.089 197.6 238.402 196.705C240.356 197.984 242.73 198.633 245.141 198.548C248.211 198.385 251.912 196.868 251.902 195.361C251.891 193.853 248.148 192.375 242.888 191.532C251.939 188.728 257.899 184.79 257.491 181.483C257.419 181.015 257.241 180.566 256.967 180.164C256.693 179.762 256.33 179.416 255.9 179.148C252.994 177.324 246.944 179.511 240.756 184.727C246.202 178.191 248.466 172.764 246.446 170.673C245.385 169.577 243.402 169.716 242.845 169.754C238.174 170.079 233.948 175.176 231.97 182.464C232.278 175.932 229.484 171.276 226.074 170.701C225.302 170.575 224.507 170.629 223.764 170.859C223.022 171.088 222.356 171.485 221.832 172.013C219.658 174.405 221.36 179.904 226.785 185.412C223.54 181.583 219.892 179.77 217.686 180.679C216.98 180.994 216.427 181.532 216.132 182.191C215.013 184.727 218.306 188.857 223.964 192.633C223.656 193.59 219.043 209.162 231.175 221.346C235.265 225.419 240.5 228.417 246.325 230.025C252.149 231.632 258.347 231.788 264.262 230.476C263.212 226.949 262.135 222.7 261.027 219.154Z" fill="white" stroke="black" stroke-width="2" stroke-linecap="square" stroke-linejoin="round"/>
<path d="M313.673 270.62C345.842 270.62 371.919 247.085 371.919 218.052C371.919 189.02 345.842 165.484 313.673 165.484C281.505 165.484 255.427 189.02 255.427 218.052C255.427 247.085 281.505 270.62 313.673 270.62Z" fill="white" stroke="black" stroke-width="2" stroke-miterlimit="10"/>
<path d="M273.546 215.546C284.24 215.546 292.91 207.721 292.91 198.069C292.91 188.417 284.24 180.593 273.546 180.593C262.851 180.593 254.182 188.417 254.182 198.069C254.182 207.721 262.851 215.546 273.546 215.546Z" fill="white" stroke="black" stroke-width="2" stroke-linejoin="round"/>
<path d="M273.944 195.401C274.915 190.489 272.289 185.957 268.08 185.28C263.871 184.603 259.672 188.036 258.702 192.948C257.731 197.861 260.356 202.392 264.566 203.069C268.775 203.747 272.974 200.313 273.944 195.401Z" fill="black"/>
<path d="M312.965 221.886C323.659 221.886 332.329 214.062 332.329 204.41C332.329 194.758 323.659 186.934 312.965 186.934C302.27 186.934 293.601 194.758 293.601 204.41C293.601 214.062 302.27 221.886 312.965 221.886Z" fill="white" stroke="black" stroke-width="2" stroke-linejoin="round"/>
<path d="M313.364 201.743C314.335 196.831 311.709 192.299 307.5 191.622C303.291 190.944 299.092 194.378 298.122 199.29C297.151 204.202 299.776 208.734 303.985 209.411C308.195 210.088 312.394 206.655 313.364 201.743Z" fill="black"/>
<path d="M297.778 225.013C298.594 221.006 293.783 216.851 287.033 215.732C280.283 214.613 274.15 216.954 273.335 220.961C272.519 224.968 277.33 229.123 284.08 230.242C290.83 231.361 296.963 229.02 297.778 225.013Z" fill="black"/>
<path d="M287.656 178.994C286.739 180.908 279.422 179.76 274.65 178.994C270.015 178.262 262.263 177.042 262.131 174.874C261.998 172.706 269.273 169.461 276.002 170.49C282.879 171.548 288.595 177.018 287.656 178.994Z" fill="black"/>
<path d="M327.534 184.043C326.617 185.957 319.3 184.808 314.527 184.043C309.893 183.311 302.141 182.086 302.009 179.918C301.876 177.75 309.151 174.505 315.88 175.534C322.762 176.601 328.467 182.066 327.534 184.043Z" fill="black"/>
<path d="M291.574 233.596C303.998 239.171 317.147 239.224 325.281 233.17C327.787 231.282 329.781 228.902 331.114 226.212" stroke="black" stroke-width="2" stroke-linecap="round" stroke-linejoin="round"/>
<path d="M326.283 226.408C327.829 225.817 329.567 225.786 331.138 226.32C332.709 226.855 333.991 227.914 334.719 229.279" stroke="black" stroke-width="2" stroke-linecap="round" stroke-linejoin="round"/>
<path d="M323.822 166.289C318.198 165.375 312.456 165.214 306.78 165.81C311.658 170.471 319.798 175.247 329.665 178.812C340.196 182.641 350.344 184.196 357.566 183.555C348.848 174.474 336.933 168.377 323.822 166.289V166.289Z" fill="black"/>
<path d="M325.207 153.019C318.95 149.377 304.31 141.333 300.455 144.884C300.229 145.099 300.049 145.351 299.925 145.625C297.014 151.287 313.711 167.638 332.932 179.411C339.985 183.717 358.58 195.078 365.33 190.029C366.153 189.357 366.778 188.51 367.148 187.565C370.733 180.042 370.505 165.045 358.803 156.182C349.773 149.339 336.549 148.119 325.207 153.019Z" fill="#FBFBFB" stroke="black" stroke-width="2" stroke-linejoin="round"/>
<path d="M528.68 359.286C541.803 357.596 554.083 364.138 558.065 373.972C562.89 385.883 554.841 400.862 539.03 405.049C536.485 401.434 533.938 397.82 531.389 394.205C541.575 392.597 546.766 383.797 544.348 377.767C542.46 373.039 535.737 369.632 528.298 370.589L528.68 359.286Z" fill="white" stroke="black" stroke-width="2" stroke-miterlimit="10"/>
<path d="M538.315 372.039L538.627 359.544C535.298 358.903 531.869 358.8 528.5 359.238L528.118 370.56C531.605 370.075 535.172 370.593 538.315 372.039V372.039Z" fill="black"/>
<path d="M449.225 337.368C439.394 329.343 425.157 328.572 415.761 334.712C404.383 342.153 401.779 358.639 412.294 370.086L425.343 364.946C417.919 358.477 419.054 348.561 424.781 344.781C429.282 341.814 436.976 342.388 442.528 346.948L449.225 337.368Z" fill="white" stroke="black" stroke-width="2" stroke-miterlimit="10"/>
<path d="M432.234 342.776L440.029 332.32C443.443 333.539 446.612 335.256 449.409 337.402C447.083 340.576 444.759 343.751 442.436 346.925C439.554 344.678 436.009 343.236 432.234 342.776V342.776Z" fill="black"/>
<path d="M496.494 292.112L411.429 366.095C409.828 367.483 408.657 369.225 408.033 371.147C407.409 373.069 407.353 375.106 407.87 377.054C408.387 379.002 409.46 380.794 410.982 382.252C412.504 383.71 414.422 384.784 416.545 385.366L526.304 415.644C528.426 416.233 530.682 416.311 532.848 415.87C535.014 415.429 537.014 414.484 538.65 413.13C540.287 411.775 541.501 410.058 542.174 408.148C542.848 406.238 542.955 404.203 542.487 402.244L517.794 297.984C517.323 295.977 516.264 294.12 514.729 292.607C513.193 291.094 511.236 289.98 509.062 289.381C506.888 288.781 504.575 288.719 502.365 289.199C500.155 289.679 498.128 290.685 496.494 292.112V292.112Z" fill="white" stroke="black" stroke-width="2" stroke-linejoin="round"/>
<path d="M485.554 332.954C487.56 327.032 479.846 319.654 468.325 316.475C456.804 313.296 445.838 315.52 443.832 321.442C441.826 327.364 449.54 334.741 461.061 337.92C472.582 341.099 483.548 338.876 485.554 332.954Z" fill="black" stroke="black" stroke-width="2" stroke-miterlimit="10"/>
<path d="M516.77 341.565C518.776 335.643 511.062 328.265 499.541 325.086C488.02 321.907 477.054 324.131 475.048 330.053C473.042 335.974 480.756 343.352 492.277 346.531C503.798 349.71 514.764 347.486 516.77 341.565Z" fill="black" stroke="white" stroke-width="2" stroke-miterlimit="10"/>
<path d="M489.913 330.921C490.538 329.076 488.995 327.015 486.466 326.317C483.937 325.62 481.381 326.55 480.756 328.395C480.131 330.24 481.674 332.301 484.203 332.999C486.732 333.697 489.288 332.766 489.913 330.921Z" fill="white"/>
<path d="M458.732 320.698C459.357 318.853 457.813 316.792 455.285 316.094C452.756 315.396 450.199 316.326 449.574 318.171C448.949 320.016 450.492 322.078 453.021 322.776C455.55 323.473 458.107 322.543 458.732 320.698Z" fill="white"/>
<path d="M475.81 338.445L470.826 341.197C470.44 341.409 470.131 341.717 469.934 342.084C469.738 342.451 469.663 342.862 469.719 343.266C469.775 343.67 469.96 344.052 470.25 344.364C470.54 344.676 470.924 344.906 471.356 345.025L478.779 347.069C479.211 347.188 479.671 347.193 480.105 347.081C480.54 346.97 480.929 346.747 481.226 346.441C481.523 346.134 481.715 345.756 481.78 345.353C481.844 344.95 481.778 344.539 481.59 344.169L479.161 339.383C479.025 339.11 478.827 338.866 478.578 338.667C478.33 338.469 478.037 338.32 477.72 338.231C477.403 338.143 477.069 338.116 476.74 338.153C476.41 338.19 476.093 338.289 475.81 338.445V338.445Z" fill="black"/>
<path d="M474.24 365.075C480.312 361.717 487.304 359.959 494.425 359.999C501.546 360.038 508.513 361.875 514.538 365.3" stroke="black" stroke-width="2" stroke-linecap="round" stroke-linejoin="round"/>
<path d="M515.969 361.956C516.013 362.913 515.792 363.865 515.328 364.726C514.575 366.065 513.303 367.108 511.754 367.655" stroke="black" stroke-width="2" stroke-linecap="round" stroke-linejoin="round"/>
<path d="M500.715 315.537C508.541 317.695 516.283 318.073 522.932 316.972L516.039 290.652C514.602 285.154 506.786 282.996 502.189 286.824L480.619 304.798C485.497 309.387 492.438 313.264 500.715 315.537Z" fill="black"/>
<path d="M513.212 284.356C510.462 283.297 507.52 282.703 504.532 282.604C495.624 282.379 489.213 287.011 487.262 288.543C481.912 287.055 476.949 286.294 473.174 286.279C470.093 286.279 466.859 286.949 466.233 288.514C464.642 292.481 480.952 301.062 483.932 302.631C484.786 303.081 498.021 309.881 516.998 312.154C521.425 312.685 524.225 312.733 526.218 311.159C530.556 307.732 528.414 298.769 524.882 293.371C521.351 287.973 515.863 285.389 513.212 284.356Z" fill="white" stroke="black" stroke-width="2" stroke-miterlimit="10"/>
<path d="M951.748 327.549C951.563 327.071 950.958 325.936 948.381 325.037C948.519 324.419 948.848 322.472 947.56 321.333C945.842 319.811 941.525 319.998 937.936 322.898C937.199 321.874 935.746 320.227 933.551 319.921C931.758 319.672 929.563 320.328 925.767 323.831C917.5 331.444 918.2 337.278 913.746 338.063C909.86 338.752 907.012 334.713 902.564 336.201C902.145 336.345 900.252 336.981 899.913 338.249C899.382 340.039 902.102 342.556 906.97 344.394C906.503 345.542 905.337 348.911 907.161 352.185C908.289 354.093 910.068 355.622 912.235 356.544C902.044 380.72 884.896 354.271 884.896 354.271L878.899 369.613C878.899 369.613 887.505 384.075 905.804 380.62C920.809 377.787 925.274 361.875 926.398 356.243C930.753 353.598 934.483 350.198 937.368 346.241C939.44 343.374 941.01 340.236 942.024 336.938C949.092 334.201 952.713 330.129 951.748 327.549Z" fill="white" stroke="black" stroke-width="2" stroke-linecap="round" stroke-linejoin="round"/>
<path d="M934.061 328.487C934.34 327.047 935.027 325.697 936.054 324.567C936.868 323.559 937.88 322.695 939.04 322.017" fill="white"/>
<path d="M934.061 328.487C934.34 327.047 935.027 325.697 936.054 324.567C936.868 323.559 937.88 322.695 939.04 322.017" stroke="black" stroke-width="2" stroke-linecap="round" stroke-linejoin="round"/>
<path d="M939.31 330.96C939.31 330.96 944.649 325.998 948.218 325.481Z" fill="white"/>
<path d="M939.31 330.96C939.31 330.96 944.649 325.998 948.218 325.481" stroke="black" stroke-width="2" stroke-linecap="round" stroke-linejoin="round"/>
<path d="M884.812 375.919C887.62 378.108 890.947 379.684 894.537 380.528L897.321 365.86C893.71 364.353 890.428 361.156 888.116 358.5L884.812 375.919Z" fill="black"/>
<path d="M875.056 297.084H794.444C786.075 297.084 779.29 303.208 779.29 310.761V383.514C779.29 391.068 786.075 397.191 794.444 397.191H875.056C883.425 397.191 890.21 391.068 890.21 383.514V310.761C890.21 303.208 883.425 297.084 875.056 297.084Z" fill="white" stroke="black" stroke-width="2" stroke-linejoin="round"/>
<path d="M793.257 360.774C805.77 360.774 815.914 351.619 815.914 340.326C815.914 329.032 805.77 319.877 793.257 319.877C780.743 319.877 770.6 329.032 770.6 340.326C770.6 351.619 780.743 360.774 793.257 360.774Z" fill="black"/>
<path d="M793.404 357.802C804.099 357.802 812.768 349.978 812.768 340.326C812.768 330.674 804.099 322.849 793.404 322.849C782.71 322.849 774.04 330.674 774.04 340.326C774.04 349.978 782.71 357.802 793.404 357.802Z" fill="white" stroke="black" stroke-width="2" stroke-linejoin="round"/>
<path d="M831.937 360.774C844.45 360.774 854.594 351.619 854.594 340.326C854.594 329.032 844.45 319.877 831.937 319.877C819.424 319.877 809.28 329.032 809.28 340.326C809.28 351.619 819.424 360.774 831.937 360.774Z" fill="black"/>
<path d="M831.799 357.802C842.493 357.802 851.163 349.978 851.163 340.326C851.163 330.674 842.493 322.849 831.799 322.849C821.104 322.849 812.435 330.674 812.435 340.326C812.435 349.978 821.104 357.802 831.799 357.802Z" fill="white" stroke="black" stroke-width="2" stroke-linejoin="round"/>
<path d="M784.173 343.771C781.554 343.76 779.046 342.814 777.196 341.141C775.346 339.467 774.305 337.201 774.3 334.837H794.051C794.044 337.201 793.002 339.467 791.151 341.141C789.301 342.814 786.792 343.76 784.173 343.771Z" fill="black"/>
<path d="M822.573 343.771C819.953 343.761 817.443 342.816 815.593 341.142C813.742 339.468 812.7 337.202 812.694 334.837H832.446C832.44 337.201 831.399 339.467 829.549 341.141C827.7 342.814 825.192 343.76 822.573 343.771V343.771Z" fill="black"/>
<path d="M809.716 346.499H800.225C795.642 346.499 791.927 349.852 791.927 353.988V355.941C791.927 360.077 795.642 363.43 800.225 363.43H809.716C814.299 363.43 818.014 360.077 818.014 355.941V353.988C818.014 349.852 814.299 346.499 809.716 346.499Z" fill="black"/>
<path d="M843.984 315.322C843.337 317.332 835.919 316.997 831.083 316.757C826.38 316.547 818.522 316.193 818.098 314.058C817.674 311.924 824.461 307.89 831.258 308.163C838.205 308.469 844.626 313.259 843.984 315.322Z" fill="black"/>
<path d="M804.905 315.322C804.258 317.332 796.84 316.997 792.004 316.757C787.301 316.547 779.443 316.193 779.019 314.058C778.595 311.924 785.382 307.89 792.179 308.163C799.152 308.469 805.573 313.259 804.905 315.322Z" fill="black"/>
<path d="M771.58 334.847H812.27" stroke="black" stroke-width="2" stroke-linejoin="round"/>
<path d="M810.631 334.995H851.321" stroke="black" stroke-width="2" stroke-linejoin="round"/>
<path d="M853.624 334.845L890.046 330.702" stroke="black" stroke-width="2" stroke-linejoin="round"/>
<path d="M846.105 281.843C838.984 279.895 822.457 275.794 819.827 280.153C819.671 280.417 819.569 280.704 819.525 281C818.464 287.169 839.477 298.759 861.562 305.282C869.658 307.674 891.001 313.977 895.942 307.445C896.535 306.597 896.88 305.627 896.944 304.626C898.1 296.491 893.302 282.135 879.351 276.526C868.619 272.2 855.538 274.31 846.105 281.843Z" fill="#FBFBFB" stroke="black" stroke-width="2" stroke-linejoin="round"/>
<path d="M809.816 368.176L854.775 367.588L809.816 368.176Z" fill="#FBFBFB"/>
<path d="M809.816 368.176L854.775 367.588" stroke="black" stroke-width="2" stroke-linejoin="round"/>
<path d="M828.846 297.084C830.553 299.083 832.538 300.875 834.753 302.415C847.897 311.508 864.912 308.517 869.377 307.598C862.77 305.789 855.792 303.597 848.539 300.932C845.124 299.678 841.842 298.402 838.692 297.104L828.846 297.084Z" fill="black"/>
<path d="M749.861 333.851C749.623 334.215 748.912 335.029 746.68 335.34C746.68 335.861 746.553 337.483 745.296 338.211C743.61 339.168 740.169 338.326 737.841 335.416C737.051 336.124 735.556 337.225 733.726 337.12C732.231 337.034 730.593 336.163 728.217 332.732C723.042 325.276 724.744 320.687 721.324 319.332C718.328 318.165 715.242 320.969 711.95 319.055C711.637 318.873 710.237 318.059 710.195 316.983C710.136 315.456 712.803 313.843 717.088 313.154C716.934 312.149 716.658 309.249 718.763 306.9C720.047 305.543 721.779 304.594 723.705 304.191C720.216 283.087 701.228 301.674 701.228 301.674L699.404 288.351C699.404 288.351 709.171 278.063 723.265 283.757C734.808 288.428 735.301 301.966 735.105 306.684C738.098 309.509 740.441 312.842 741.998 316.49C743.107 319.132 743.76 321.913 743.933 324.735C749.024 328.056 751.145 331.923 749.861 333.851Z" fill="white" stroke="black" stroke-width="2" stroke-linecap="round" stroke-linejoin="round"/>
<path d="M725.381 294.117C723.684 297.84 711.419 296.266 708.943 299.419C706.403 302.678 712.125 312.56 708.943 315.164C705.762 317.767 695.396 311.584 691.599 313.489C687.803 315.393 688.211 326.567 684.027 327.668C679.844 328.769 673.571 319.155 669.181 319.389C664.881 319.624 659.896 329.86 655.543 329.199C651.301 328.558 650.299 317.441 646.179 315.915C642.059 314.388 632.664 321.657 629.169 319.423C625.558 317.13 629.986 306.689 627.101 303.793C624.217 300.898 612.212 303.698 610.107 300.276C608.002 296.854 617 289.159 615.76 285.384C614.519 281.608 602.382 279.522 602.117 275.574C601.852 271.626 613.644 268.3 614.37 264.371C615.081 260.566 605.128 253.905 606.825 250.187C608.522 246.469 620.781 248.038 623.262 244.88C625.802 241.621 620.081 231.739 623.262 229.141C626.444 226.542 636.815 232.72 640.606 230.815C644.398 228.911 643.995 217.737 648.178 216.636C652.362 215.536 658.64 225.149 663.025 224.915C667.41 224.681 672.309 214.444 676.662 215.105C680.904 215.741 681.907 226.863 686.032 228.389C690.157 229.916 699.542 222.647 703.036 224.882C706.647 227.174 702.22 237.616 705.104 240.511C707.989 243.406 719.993 240.606 722.104 244.028C724.214 247.45 715.211 255.145 716.446 258.92C717.681 262.696 729.824 264.782 730.089 268.73C730.354 272.678 718.567 276.004 717.835 279.933C717.119 283.738 727.072 290.399 725.381 294.117Z" fill="white"/>
<path d="M725.381 294.117C723.684 297.84 711.419 296.266 708.943 299.419C706.403 302.678 712.125 312.56 708.943 315.164C705.762 317.767 695.396 311.584 691.599 313.489C687.803 315.393 688.211 326.567 684.027 327.668C679.844 328.769 673.571 319.155 669.181 319.389C664.881 319.624 659.896 329.86 655.543 329.199C651.301 328.558 650.299 317.441 646.179 315.915C642.059 314.388 632.664 321.657 629.169 319.423C625.558 317.13 629.986 306.689 627.101 303.793C624.217 300.898 612.212 303.698 610.107 300.276C608.002 296.854 617 289.159 615.76 285.384C614.519 281.608 602.382 279.522 602.117 275.574C601.852 271.626 613.644 268.3 614.37 264.371C615.081 260.566 605.128 253.905 606.825 250.187C608.522 246.469 620.781 248.038 623.262 244.88C625.802 241.621 620.081 231.739 623.262 229.141C626.444 226.542 636.815 232.72 640.606 230.815C644.398 228.911 643.995 217.737 648.178 216.636C652.362 215.536 658.64 225.149 663.025 224.915C667.41 224.681 672.309 214.444 676.662 215.105C680.904 215.741 681.907 226.863 686.032 228.389C690.157 229.916 699.542 222.647 703.036 224.882C706.647 227.174 702.22 237.616 705.104 240.511C707.989 243.406 719.993 240.606 722.104 244.028C724.214 247.45 715.211 255.145 716.446 258.92C717.681 262.696 729.824 264.782 730.089 268.73C730.354 272.678 718.567 276.004 717.835 279.933C717.119 283.738 727.072 290.399 725.381 294.117Z" stroke="black" stroke-width="2" stroke-miterlimit="10"/>
<path d="M632.744 269.272C643.439 269.272 652.108 261.447 652.108 251.795C652.108 242.143 643.439 234.319 632.744 234.319C622.049 234.319 613.38 242.143 613.38 251.795C613.38 261.447 622.049 269.272 632.744 269.272Z" fill="white" stroke="black" stroke-width="2" stroke-linejoin="round"/>
<path d="M667.957 282.321C678.652 282.321 687.321 274.497 687.321 264.845C687.321 255.193 678.652 247.368 667.957 247.368C657.262 247.368 648.593 255.193 648.593 264.845C648.593 274.497 657.262 282.321 667.957 282.321Z" fill="white" stroke="black" stroke-width="2" stroke-linejoin="round"/>
<path d="M658.576 264.936C662.852 264.936 666.318 261.808 666.318 257.949C666.318 254.09 662.852 250.962 658.576 250.962C654.301 250.962 650.835 254.09 650.835 257.949C650.835 261.808 654.301 264.936 658.576 264.936Z" fill="black"/>
<path d="M623.363 251.886C627.638 251.886 631.104 248.758 631.104 244.899C631.104 241.041 627.638 237.913 623.363 237.913C619.087 237.913 615.621 241.041 615.621 244.899C615.621 248.758 619.087 251.886 623.363 251.886Z" fill="black"/>
<path d="M652.892 271.97C654.613 268.188 650.843 263.207 644.472 260.846C638.101 258.484 631.541 259.635 629.82 263.417C628.098 267.199 631.868 272.18 638.239 274.542C644.61 276.903 651.17 275.752 652.892 271.97Z" fill="black"/>
<path d="M691.094 250.206C690.898 250.532 688.194 249.541 677.43 245.143C666.794 240.798 665.914 240.209 666.004 239.592C666.253 237.841 674.201 236.18 680.659 238.635C685.516 240.497 688.91 244.583 688.337 245.335C687.844 245.976 684.302 244.234 684.021 244.693C683.592 245.397 691.434 249.632 691.094 250.206Z" fill="black"/>
<path d="M651.747 243.478C649.806 244.617 644.419 240.004 640.903 236.994C637.494 234.075 631.783 229.184 633.003 227.313C634.222 225.442 642.266 226.356 647.24 230.581C652.33 234.893 653.74 242.32 651.747 243.478Z" fill="black"/>
<path d="M667.728 276.99C665.074 277.674 662.37 278.187 659.636 278.526C656.825 278.868 653.99 279.028 651.153 279.004C649.244 279.004 646.762 280.206 646.1 281.976C645.373 283.89 647.064 286.589 650.267 288.518C654.209 290.078 658.588 290.504 662.807 289.738C665.901 289.149 668.804 287.926 671.291 286.163C673.879 284.302 675.003 281.636 674.133 279.746C672.982 277.339 668.931 276.679 667.728 276.99Z" fill="white" stroke="black" stroke-width="2" stroke-linejoin="round"/>
<path d="M656.545 278.848L654.355 289.629" stroke="black" stroke-width="2" stroke-linejoin="round"/>
<path d="M662.41 278.148L669.568 287.686" stroke="black" stroke-width="2" stroke-linejoin="round"/>
<path d="M761.622 195.901C768.558 193.46 784.364 187.474 783.442 182.578C783.389 182.284 783.274 182.001 783.102 181.746C779.719 176.295 755.254 178.903 733.424 186.086C725.423 188.718 704.325 195.657 704.908 203.553C704.961 204.29 705.205 205.051 706.048 206.329C710.704 213.358 724.304 221.977 739.119 218.617C750.53 216.033 759.369 207.085 761.622 195.901Z" fill="#FBFBFB" stroke="black" stroke-width="2" stroke-linejoin="round"/>
<path d="M732.785 328.697L662.193 351.521C660.723 351.996 659.959 353.456 660.485 354.783L676.567 395.297C677.094 396.623 678.712 397.313 680.181 396.838L750.774 374.013C752.243 373.538 753.007 372.078 752.481 370.752L736.399 330.238C735.873 328.912 734.255 328.222 732.785 328.697Z" fill="white" stroke="black" stroke-width="2" stroke-linejoin="round"/>
<path d="M664.833 358.238L708.699 368.565L735.731 335.311" fill="white"/>
<path d="M664.833 358.238L708.699 368.565L735.731 335.311" stroke="black" stroke-width="2" stroke-linecap="round" stroke-linejoin="round"/>
<path d="M716.436 360.295L716.749 361.085C716.746 361.126 716.746 361.168 716.749 361.209C716.888 361.728 716.945 362.261 716.919 362.793C716.85 364.073 716.527 365.331 715.965 366.507C714.752 369.087 713.131 371.493 711.15 373.651C711.072 373.744 710.965 373.813 710.844 373.851C710.722 373.889 710.59 373.892 710.466 373.862C707.896 373.407 705.393 372.686 703.006 371.713C701.517 371.134 700.146 370.335 698.949 369.349C698.074 368.663 697.427 367.771 697.081 366.772C696.734 365.773 696.702 364.707 696.987 363.693C697.157 362.936 697.526 362.228 698.065 361.628C698.603 361.028 699.294 360.555 700.079 360.248C700.864 359.942 701.72 359.811 702.573 359.868C703.426 359.924 704.251 360.166 704.978 360.573C705.249 360.712 705.508 360.884 705.773 361.051L705.821 360.913C705.925 360.563 706.055 360.219 706.208 359.884C706.575 359.068 707.192 358.364 707.988 357.855C708.784 357.346 709.725 357.054 710.699 357.012C712.82 356.893 714.501 357.754 715.758 359.286C716.028 359.601 716.198 359.96 716.436 360.295Z" fill="black"/>
<path d="M721.745 323.555L653.543 351.684C652.124 352.269 651.499 353.783 652.147 355.064L671.967 394.206C672.616 395.487 674.293 396.051 675.712 395.466L743.914 367.337C745.333 366.751 745.958 365.238 745.31 363.956L725.49 324.815C724.841 323.533 723.164 322.969 721.745 323.555Z" fill="white" stroke="black" stroke-width="2" stroke-linejoin="round"/>
<path d="M656.736 358.371L701.409 365.315L725.232 330.123" fill="white"/>
<path d="M656.736 358.371L701.409 365.315L725.232 330.123" stroke="black" stroke-width="2" stroke-linecap="round" stroke-linejoin="round"/>
<path d="M708.344 356.491L708.731 357.252C708.726 357.293 708.726 357.335 708.731 357.376C708.916 357.882 709.023 358.409 709.05 358.941C709.099 360.222 708.894 361.501 708.445 362.717C707.478 365.379 706.086 367.9 704.315 370.201C704.245 370.299 704.145 370.377 704.027 370.423C703.909 370.47 703.779 370.485 703.652 370.464C701.048 370.206 698.486 369.678 696.016 368.89C694.487 368.423 693.054 367.731 691.774 366.842C690.839 366.224 690.112 365.385 689.674 364.417C689.236 363.449 689.104 362.39 689.293 361.358C689.391 360.591 689.693 359.856 690.173 359.217C690.654 358.578 691.298 358.054 692.052 357.688C692.806 357.323 693.646 357.128 694.502 357.119C695.358 357.111 696.203 357.289 696.965 357.639C697.246 357.759 697.496 357.908 697.803 358.051C697.811 358.003 697.821 357.955 697.835 357.907C697.906 357.552 698.002 357.2 698.121 356.855C698.858 355.079 700.242 353.94 702.326 353.658C704.41 353.376 706.192 354.108 707.586 355.539C707.872 355.831 708.095 356.175 708.344 356.491Z" fill="black"/>
<path d="M724.176 332.954L653.689 355.963C652.222 356.442 651.462 357.904 651.993 359.228L668.206 399.681C668.736 401.006 670.356 401.691 671.823 401.212L742.31 378.202C743.777 377.723 744.536 376.261 744.006 374.937L727.793 334.484C727.262 333.16 725.643 332.475 724.176 332.954Z" fill="white" stroke="black" stroke-width="1.9992" stroke-linejoin="round"/>
<path d="M655.008 367.009L698.874 377.332L725.9 344.078" fill="white"/>
<path d="M655.008 367.009L698.874 377.332L725.9 344.078" stroke="black" stroke-width="2" stroke-linecap="round" stroke-linejoin="round"/>
<path d="M706.611 369.068L706.924 369.852C706.921 369.894 706.921 369.935 706.924 369.977C707.061 370.497 707.12 371.031 707.099 371.566C707.03 372.843 706.707 374.1 706.144 375.274C704.934 377.856 703.31 380.263 701.325 382.419C701.248 382.512 701.143 382.582 701.022 382.62C700.901 382.659 700.77 382.664 700.646 382.634C698.076 382.179 695.573 381.458 693.185 380.486C691.698 379.905 690.328 379.106 689.129 378.122C688.254 377.435 687.607 376.543 687.26 375.544C686.912 374.546 686.879 373.48 687.162 372.465C687.331 371.708 687.701 370.999 688.239 370.398C688.778 369.798 689.47 369.324 690.256 369.018C691.041 368.711 691.898 368.581 692.751 368.638C693.605 368.695 694.431 368.937 695.158 369.345C695.428 369.484 695.688 369.651 695.953 369.824C695.953 369.771 695.953 369.728 695.996 369.68C696.103 369.331 696.232 368.987 696.383 368.651C696.749 367.835 697.366 367.131 698.162 366.622C698.958 366.113 699.899 365.821 700.874 365.78C703.021 365.655 704.681 366.522 705.938 368.053C706.183 368.38 706.408 368.718 706.611 369.068Z" fill="black"/>
<path d="M556.607 381.388L627.2 404.213C628.669 404.688 630.287 403.998 630.814 402.672L646.895 362.157C647.422 360.831 646.657 359.371 645.188 358.896L574.595 336.072C573.126 335.597 571.508 336.287 570.982 337.613L554.9 378.127C554.373 379.453 555.138 380.913 556.607 381.388Z" fill="white" stroke="black" stroke-width="2" stroke-linejoin="round"/>
<path d="M642.723 365.675L598.861 375.997L571.83 342.748" fill="white"/>
<path d="M642.723 365.675L598.861 375.997L571.83 342.748" stroke="black" stroke-width="2" stroke-linecap="round" stroke-linejoin="round"/>
<path d="M591.125 367.732L590.812 368.521C590.818 368.563 590.818 368.605 590.812 368.646C590.675 369.164 590.616 369.697 590.637 370.23C590.708 371.509 591.032 372.766 591.592 373.943C592.806 376.523 594.429 378.93 596.411 381.088C596.488 381.18 596.594 381.249 596.715 381.287C596.836 381.324 596.967 381.328 597.09 381.299C599.662 380.843 602.167 380.122 604.556 379.15C606.043 378.57 607.414 377.771 608.612 376.786C609.486 376.099 610.132 375.206 610.479 374.208C610.825 373.209 610.858 372.144 610.574 371.129C610.405 370.373 610.035 369.664 609.497 369.065C608.958 368.465 608.267 367.992 607.482 367.685C606.697 367.379 605.842 367.248 604.989 367.304C604.136 367.361 603.31 367.603 602.583 368.009C602.308 368.148 602.053 368.32 601.783 368.488C601.783 368.44 601.783 368.392 601.74 368.349C601.634 368 601.504 367.656 601.353 367.32C600.987 366.505 600.369 365.801 599.573 365.292C598.777 364.783 597.836 364.491 596.862 364.449C594.715 364.329 593.055 365.191 591.804 366.722C591.533 367.038 591.348 367.397 591.125 367.732Z" fill="black"/>
<path d="M565.389 378.478L635.982 401.302C637.451 401.777 639.069 401.088 639.596 399.761L655.678 359.247C656.204 357.921 655.44 356.461 653.97 355.986L583.378 333.162C581.908 332.687 580.29 333.377 579.764 334.703L563.682 375.217C563.156 376.543 563.92 378.003 565.389 378.478Z" fill="white" stroke="black" stroke-width="2" stroke-linejoin="round"/>
<path d="M651.503 362.77L607.642 373.092L580.61 339.838" fill="white"/>
<path d="M651.503 362.77L607.642 373.092L580.61 339.838" stroke="black" stroke-width="2" stroke-linecap="round" stroke-linejoin="round"/>
<path d="M599.906 364.827L599.593 365.612C599.599 365.653 599.599 365.695 599.593 365.736C599.456 366.254 599.397 366.787 599.418 367.32C599.49 368.599 599.813 369.857 600.373 371.033C601.587 373.613 603.21 376.02 605.192 378.178C605.269 378.271 605.374 378.341 605.496 378.379C605.617 378.417 605.748 378.42 605.871 378.389C608.444 377.938 610.95 377.217 613.337 376.24C614.825 375.66 616.195 374.861 617.393 373.876C618.267 373.19 618.913 372.298 619.259 371.3C619.606 370.303 619.639 369.238 619.355 368.225C619.187 367.467 618.817 366.758 618.279 366.158C617.741 365.558 617.05 365.084 616.265 364.777C615.48 364.47 614.624 364.339 613.771 364.395C612.917 364.451 612.092 364.693 611.365 365.1C611.089 365.238 610.834 365.411 610.564 365.578C610.564 365.53 610.537 365.482 610.521 365.439C610.415 365.09 610.285 364.746 610.134 364.41C609.769 363.594 609.152 362.889 608.356 362.38C607.56 361.871 606.618 361.579 605.643 361.539C603.496 361.415 601.836 362.281 600.585 363.812C600.338 364.139 600.111 364.477 599.906 364.827Z" fill="black"/>
<path d="M573.417 376.808L644.009 399.632C645.479 400.108 647.097 399.418 647.623 398.091L663.705 357.577C664.231 356.251 663.467 354.791 661.998 354.316L591.405 331.492C589.936 331.017 588.318 331.707 587.791 333.033L571.709 373.547C571.183 374.873 571.947 376.333 573.417 376.808Z" fill="white" stroke="black" stroke-width="2" stroke-linejoin="round"/>
<path d="M659.536 361.094L615.67 371.421L588.639 338.167" fill="white"/>
<path d="M659.536 361.094L615.67 371.421L588.639 338.167" stroke="black" stroke-width="2" stroke-linecap="round" stroke-linejoin="round"/>
<path d="M607.94 363.157L607.627 363.942C607.63 363.983 607.63 364.025 607.627 364.066C607.489 364.584 607.431 365.118 607.457 365.65C607.526 366.93 607.849 368.188 608.412 369.364C609.624 371.944 611.246 374.35 613.226 376.508C613.304 376.6 613.411 376.669 613.533 376.707C613.655 376.744 613.786 376.749 613.91 376.719C616.481 376.268 618.985 375.547 621.371 374.57C622.859 373.991 624.23 373.192 625.427 372.206C626.302 371.521 626.948 370.629 627.295 369.631C627.641 368.633 627.674 367.568 627.389 366.555C627.22 365.798 626.851 365.089 626.313 364.488C625.775 363.888 625.084 363.414 624.299 363.107C623.514 362.8 622.658 362.669 621.804 362.725C620.951 362.781 620.125 363.023 619.398 363.43C619.128 363.569 618.868 363.741 618.603 363.908L618.555 363.77C618.451 363.419 618.322 363.076 618.168 362.741C617.801 361.925 617.184 361.221 616.388 360.712C615.592 360.203 614.651 359.911 613.677 359.869C611.556 359.75 609.875 360.616 608.618 362.147C608.372 362.472 608.145 362.809 607.94 363.157Z" fill="black"/>
<path d="M790.686 245.711L858.888 217.582C860.307 216.996 860.932 215.483 860.283 214.202L849.705 193.31C849.056 192.028 847.379 191.464 845.96 192.05L777.758 220.179C776.338 220.765 775.713 222.278 776.362 223.559L786.941 244.451C787.59 245.732 789.266 246.296 790.686 245.711Z" fill="white" stroke="black" stroke-width="2" stroke-linejoin="round"/>
<path d="M848.025 195.757L820.171 222.034L779.523 224.006" fill="white"/>
<path d="M848.025 195.757L820.171 222.034L779.523 224.006" stroke="black" stroke-width="2" stroke-linecap="round" stroke-linejoin="round"/>
<path d="M809.286 223.049L809.508 223.494C809.532 223.507 809.553 223.524 809.572 223.542C809.785 223.812 810.06 224.037 810.378 224.202C811.286 224.655 812.284 224.941 813.315 225.045C815.954 225.347 818.623 225.376 821.269 225.131C821.515 225.11 821.746 225.012 821.921 224.853C823.571 223.44 825.079 221.898 826.428 220.245C827.182 219.358 827.77 218.366 828.167 217.307C828.644 215.818 828.077 214.775 826.333 214.268C824.897 213.914 823.37 214.026 822.016 214.584C820.484 215.078 819.178 216.02 818.305 217.259C818.178 217.45 818.082 217.642 817.971 217.838H817.854C817.555 217.762 817.25 217.705 816.942 217.666C815.103 217.519 813.266 217.975 811.767 218.948C810.028 220.006 809.259 221.173 809.195 222.37C809.203 222.598 809.233 222.825 809.286 223.049Z" fill="black"/>
<path d="M935.577 327.681L1003.78 299.552C1005.2 298.967 1005.82 297.454 1005.17 296.172L993.206 272.534C992.557 271.253 990.88 270.689 989.46 271.274L921.259 299.403C919.839 299.989 919.214 301.502 919.863 302.783L931.832 326.422C932.481 327.703 934.158 328.267 935.577 327.681Z" fill="white" stroke="black" stroke-width="2" stroke-linejoin="round"/>
<path d="M991.729 275.382L964.544 302.98L923.233 303.631" fill="white"/>
<path d="M991.729 275.382L964.544 302.98L923.233 303.631" stroke="black" stroke-width="2" stroke-linecap="round" stroke-linejoin="round"/>
<path d="M953.499 303.683L953.748 304.162C953.774 304.18 953.797 304.201 953.817 304.224C954.044 304.519 954.332 304.771 954.666 304.966C955.593 305.484 956.623 305.833 957.699 305.995C960.377 306.421 963.103 306.549 965.817 306.378C965.94 306.373 966.061 306.347 966.173 306.3C966.285 306.253 966.385 306.187 966.469 306.105C968.097 304.614 969.565 302.988 970.854 301.248C971.592 300.294 972.146 299.234 972.492 298.113C972.916 296.51 972.285 295.352 970.488 294.735C969.054 294.294 967.489 294.361 966.108 294.921C964.55 295.413 963.244 296.4 962.434 297.697C962.312 297.898 962.227 298.104 962.115 298.319L961.999 298.285C961.693 298.195 961.381 298.121 961.066 298.065C959.224 297.834 957.356 298.266 955.864 299.267C954.146 300.358 953.409 301.597 953.398 302.899C953.41 303.162 953.444 303.425 953.499 303.683V303.683Z" fill="black"/>
<path d="M813.135 245.23L886.957 257.109C888.494 257.357 889.961 256.433 890.235 255.046L893.306 239.504C893.58 238.117 892.556 236.793 891.02 236.545L817.198 224.666C815.662 224.418 814.194 225.342 813.92 226.729L810.849 242.271C810.575 243.658 811.599 244.982 813.135 245.23Z" fill="white" stroke="black" stroke-width="2" stroke-linejoin="round"/>
<path d="M890.556 239.621L851.753 243.549L816.418 227.69" fill="white"/>
<path d="M890.556 239.621L851.753 243.549L816.418 227.69" stroke="black" stroke-width="2" stroke-linecap="round" stroke-linejoin="round"/>
<path d="M842.007 239.587L841.933 239.946C841.937 239.965 841.937 239.984 841.933 240.003C841.963 240.264 842.063 240.513 842.224 240.731C842.762 241.413 843.434 242 844.207 242.463C846.302 243.776 848.528 244.911 850.857 245.851C851.079 245.943 851.324 245.981 851.567 245.961C853.749 245.818 855.916 245.533 858.052 245.109C859.162 244.916 860.234 244.576 861.233 244.1C862.511 243.415 862.638 242.559 861.472 241.525C860.391 240.678 859.071 240.117 857.659 239.903C856.116 239.552 854.499 239.561 852.962 239.932C852.739 239.994 852.548 240.066 852.336 240.137L852.256 240.07C852.044 239.9 851.821 239.74 851.588 239.592C850.059 238.718 848.297 238.232 846.487 238.185C844.404 238.089 843.073 238.458 842.32 239.142C842.199 239.28 842.094 239.429 842.007 239.587V239.587Z" fill="black"/>
<path d="M410.199 433.881H386.853V456.387H410.199V433.881Z" fill="#FCFCFC" stroke="black" stroke-width="2" stroke-linecap="round" stroke-linejoin="round"/>
<path d="M117.869 453.358C105.013 470.889 92.1562 488.416 79.2998 505.941H147.255C144.908 495.949 142.557 485.957 140.203 475.965L117.869 453.358Z" fill="#FCFCFC" stroke="black" stroke-width="2" stroke-linecap="round" stroke-linejoin="round"/>
<path d="M127.164 462.751L96.7705 505.93" stroke="black" stroke-width="2" stroke-linecap="round" stroke-linejoin="round"/>
<path d="M139.365 469.748L116.983 505.931" stroke="black" stroke-width="2" stroke-linecap="round" stroke-linejoin="round"/>
<path d="M552.333 384.936H418.979C414.129 384.936 410.198 388.484 410.198 392.86V462.417C410.198 466.793 414.129 470.341 418.979 470.341H552.333C557.183 470.341 561.114 466.793 561.114 462.417V392.86C561.114 388.484 557.183 384.936 552.333 384.936Z" fill="black"/>
<path d="M198.364 307.909H148.983V358.046H198.364V307.909Z" fill="black"/>
<path d="M391.597 277.21H227.166V358.242H391.597V277.21Z" fill="black"/>
<path d="M149.322 358.051H391.602V471.719C391.602 473.821 390.677 475.837 389.03 477.323C387.384 478.809 385.15 479.644 382.821 479.644H149.322C146.993 479.644 144.76 478.809 143.113 477.323C141.466 475.837 140.541 473.821 140.541 471.719V365.961C140.545 363.862 141.472 361.85 143.118 360.367C144.765 358.884 146.996 358.051 149.322 358.051V358.051Z" fill="black"/>
<path d="M395.357 260.471H222.166C217.045 260.471 212.893 264.217 212.893 268.839C212.893 273.46 217.045 277.206 222.166 277.206H395.357C400.479 277.206 404.631 273.46 404.631 268.839C404.631 264.217 400.479 260.471 395.357 260.471Z" fill="white" stroke="black" stroke-width="2" stroke-linecap="round" stroke-linejoin="round"/>
<path d="M444.484 513.348C465.111 513.348 481.833 498.257 481.833 479.64C481.833 461.023 465.111 445.931 444.484 445.931C423.856 445.931 407.134 461.023 407.134 479.64C407.134 498.257 423.856 513.348 444.484 513.348Z" fill="white" stroke="black" stroke-width="2" stroke-linecap="round" stroke-linejoin="round"/>
<path d="M444.483 497.671C455.517 497.671 464.462 489.598 464.462 479.64C464.462 469.681 455.517 461.608 444.483 461.608C433.449 461.608 424.504 469.681 424.504 479.64C424.504 489.598 433.449 497.671 444.483 497.671Z" fill="white" stroke="black" stroke-width="2" stroke-linecap="round" stroke-linejoin="round"/>
<path d="M525.425 513.348C546.053 513.348 562.775 498.257 562.775 479.64C562.775 461.023 546.053 445.931 525.425 445.931C504.797 445.931 488.075 461.023 488.075 479.64C488.075 498.257 504.797 513.348 525.425 513.348Z" fill="white" stroke="black" stroke-width="2" stroke-linecap="round" stroke-linejoin="round"/>
<path d="M525.424 497.671C536.458 497.671 545.403 489.598 545.403 479.64C545.403 469.681 536.458 461.608 525.424 461.608C514.389 461.608 505.444 469.681 505.444 479.64C505.444 489.598 514.389 497.671 525.424 497.671Z" fill="white" stroke="black" stroke-width="2" stroke-linecap="round" stroke-linejoin="round"/>
<path d="M179.18 513.348C199.808 513.348 216.53 498.257 216.53 479.64C216.53 461.023 199.808 445.931 179.18 445.931C158.552 445.931 141.83 461.023 141.83 479.64C141.83 498.257 158.552 513.348 179.18 513.348Z" fill="white" stroke="black" stroke-width="2" stroke-linecap="round" stroke-linejoin="round"/>
<path d="M179.179 497.671C190.214 497.671 199.159 489.598 199.159 479.64C199.159 469.681 190.214 461.608 179.179 461.608C168.145 461.608 159.2 469.681 159.2 479.64C159.2 489.598 168.145 497.671 179.179 497.671Z" fill="white" stroke="black" stroke-width="2" stroke-linecap="round" stroke-linejoin="round"/>
<path d="M260.121 513.348C280.749 513.348 297.471 498.257 297.471 479.64C297.471 461.023 280.749 445.931 260.121 445.931C239.494 445.931 222.771 461.023 222.771 479.64C222.771 498.257 239.494 513.348 260.121 513.348Z" fill="white" stroke="black" stroke-width="2" stroke-linecap="round" stroke-linejoin="round"/>
<path d="M260.12 497.671C271.154 497.671 280.099 489.598 280.099 479.64C280.099 469.681 271.154 461.608 260.12 461.608C249.086 461.608 240.141 469.681 240.141 479.64C240.141 489.598 249.086 497.671 260.12 497.671Z" fill="white" stroke="black" stroke-width="2" stroke-linecap="round" stroke-linejoin="round"/>
<path d="M355.166 513.353C381.325 513.353 402.532 494.214 402.532 470.605C402.532 446.995 381.325 427.856 355.166 427.856C329.006 427.856 307.8 446.995 307.8 470.605C307.8 494.214 329.006 513.353 355.166 513.353Z" fill="white" stroke="black" stroke-width="2" stroke-linecap="round" stroke-linejoin="round"/>
<path d="M355.165 493.469C369.157 493.469 380.499 483.232 380.499 470.604C380.499 457.976 369.157 447.739 355.165 447.739C341.173 447.739 329.83 457.976 329.83 470.604C329.83 483.232 341.173 493.469 355.165 493.469Z" fill="white" stroke="black" stroke-width="2" stroke-linecap="round" stroke-linejoin="round"/>
<path d="M577.19 433.881H561.113V456.387H577.19V433.881Z" stroke="black" stroke-width="2" stroke-linecap="round" stroke-linejoin="round"/>
<path d="M719.325 384.936H585.971C581.122 384.936 577.19 388.484 577.19 392.86V462.417C577.19 466.793 581.122 470.341 585.971 470.341H719.325C724.175 470.341 728.106 466.793 728.106 462.417V392.86C728.106 388.484 724.175 384.936 719.325 384.936Z" fill="black"/>
<path d="M611.481 513.348C632.108 513.348 648.83 498.257 648.83 479.64C648.83 461.023 632.108 445.931 611.481 445.931C590.853 445.931 574.131 461.023 574.131 479.64C574.131 498.257 590.853 513.348 611.481 513.348Z" fill="white" stroke="black" stroke-width="2" stroke-linecap="round" stroke-linejoin="round"/>
<path d="M611.481 497.671C622.515 497.671 631.46 489.598 631.46 479.64C631.46 469.681 622.515 461.608 611.481 461.608C600.447 461.608 591.502 469.681 591.502 479.64C591.502 489.598 600.447 497.671 611.481 497.671Z" fill="white" stroke="black" stroke-width="2" stroke-linecap="round" stroke-linejoin="round"/>
<path d="M692.416 513.348C713.044 513.348 729.766 498.257 729.766 479.64C729.766 461.023 713.044 445.931 692.416 445.931C671.788 445.931 655.066 461.023 655.066 479.64C655.066 498.257 671.788 513.348 692.416 513.348Z" fill="white" stroke="black" stroke-width="2" stroke-linecap="round" stroke-linejoin="round"/>
<path d="M692.416 497.671C703.45 497.671 712.395 489.598 712.395 479.64C712.395 469.681 703.45 461.608 692.416 461.608C681.382 461.608 672.437 469.681 672.437 479.64C672.437 489.598 681.382 497.671 692.416 497.671Z" fill="white" stroke="black" stroke-width="2" stroke-linecap="round" stroke-linejoin="round"/>
<path d="M744.183 433.881H728.106V456.387H744.183V433.881Z" stroke="black" stroke-width="2" stroke-linecap="round" stroke-linejoin="round"/>
<path d="M886.323 384.936H752.969C748.12 384.936 744.188 388.484 744.188 392.86V462.417C744.188 466.793 748.12 470.341 752.969 470.341H886.323C891.173 470.341 895.104 466.793 895.104 462.417V392.86C895.104 388.484 891.173 384.936 886.323 384.936Z" fill="black"/>
<path d="M778.473 513.348C799.101 513.348 815.823 498.257 815.823 479.64C815.823 461.023 799.101 445.931 778.473 445.931C757.845 445.931 741.123 461.023 741.123 479.64C741.123 498.257 757.845 513.348 778.473 513.348Z" fill="white" stroke="black" stroke-width="2" stroke-linecap="round" stroke-linejoin="round"/>
<path d="M778.473 497.671C789.508 497.671 798.453 489.598 798.453 479.64C798.453 469.681 789.508 461.608 778.473 461.608C767.439 461.608 758.494 469.681 758.494 479.64C758.494 489.598 767.439 497.671 778.473 497.671Z" fill="white" stroke="black" stroke-width="2" stroke-linecap="round" stroke-linejoin="round"/>
<path d="M859.413 513.348C880.041 513.348 896.763 498.257 896.763 479.64C896.763 461.023 880.041 445.931 859.413 445.931C838.786 445.931 822.063 461.023 822.063 479.64C822.063 498.257 838.786 513.348 859.413 513.348Z" fill="white" stroke="black" stroke-width="2" stroke-linecap="round" stroke-linejoin="round"/>
<path d="M859.413 497.671C870.447 497.671 879.392 489.598 879.392 479.64C879.392 469.681 870.447 461.608 859.413 461.608C848.379 461.608 839.434 469.681 839.434 479.64C839.434 489.598 848.379 497.671 859.413 497.671Z" fill="white" stroke="black" stroke-width="2" stroke-linecap="round" stroke-linejoin="round"/>
<path d="M128.038 281.106H217.818L197.934 307.904H149.624L128.038 281.106Z" fill="black"/>
<path d="M140.541 368.842C138.161 370 133.569 372.125 129.465 375.541C106.818 394.243 102.221 432.426 120.589 458.062C123.887 462.66 129.905 469.618 140.541 475.978C140.324 440.25 140.759 404.546 140.541 368.842Z" fill="black" stroke="#FCFCFC" stroke-width="2" stroke-linecap="round" stroke-linejoin="round"/>
<path d="M245.602 286.695C244.435 286.939 244.313 287.715 244.313 288.61C244.313 304.169 244.313 319.725 244.313 335.277C244.313 336.675 244.918 337.22 246.472 337.22C263.573 337.195 280.673 337.195 297.772 337.22C299.076 337.22 299.644 336.742 299.691 335.655C299.691 335.205 299.691 334.756 299.691 334.306C299.691 319.522 299.691 304.738 299.691 289.954C299.781 288.832 299.564 287.706 299.06 286.676H245.819" fill="white"/>
<path d="M326.405 287.083C325.238 287.322 325.116 288.102 325.116 288.997C325.116 304.677 325.116 320.36 325.116 336.047C325.116 337.444 325.721 337.99 327.274 337.99C344.242 337.964 361.199 337.964 378.145 337.99C379.699 337.99 380.303 337.444 380.303 336.047C380.278 320.364 380.278 304.68 380.303 288.997C380.303 287.25 379.275 287.049 377.716 287.054C360.684 287.079 343.655 287.079 326.627 287.054" fill="white"/>
<path d="M226.546 357.343H390.977" stroke="white" stroke-width="2" stroke-miterlimit="10"/>
<path d="M148.983 357.343H198.364" stroke="white" stroke-width="2" stroke-miterlimit="10"/>
<path d="M148.983 307.909H198.364" stroke="white" stroke-width="2" stroke-miterlimit="10"/>
<path d="M643.305 360.401C636.762 357.974 620.452 352.868 600.207 356.529C589.265 358.528 578.961 362.727 570.063 368.814L605.234 399.412C623.907 390.703 644.589 386.083 665.607 385.926L643.305 360.401Z" fill="white" stroke="black" stroke-width="2" stroke-linejoin="round"/>
<path d="M617.079 368.478L691.475 360.008C693.024 359.832 694.121 358.556 693.926 357.158L687.957 314.461C687.762 313.064 686.348 312.074 684.8 312.25L610.404 320.72C608.855 320.897 607.758 322.173 607.953 323.57L613.921 366.267C614.117 367.665 615.531 368.655 617.079 368.478Z" fill="white" stroke="black" stroke-width="2" stroke-linejoin="round"/>
<path d="M685.942 319.371L652.001 346.494L611.221 327.879" fill="white"/>
<path d="M685.942 319.371L652.001 346.494L611.221 327.879" stroke="black" stroke-width="2" stroke-linecap="round" stroke-linejoin="round"/>
<path d="M640.963 342.277L641.08 343.11C641.098 343.148 641.114 343.186 641.127 343.225C641.266 343.744 641.482 344.242 641.769 344.709C642.473 345.822 643.393 346.812 644.484 347.632C646.857 349.438 649.51 350.921 652.358 352.035C652.473 352.086 652.603 352.104 652.731 352.088C652.858 352.072 652.978 352.022 653.073 351.944C655.137 350.488 657.009 348.823 658.651 346.982C659.686 345.855 660.509 344.583 661.085 343.216C661.524 342.248 661.657 341.19 661.47 340.159C661.283 339.127 660.782 338.163 660.025 337.372C659.495 336.767 658.81 336.286 658.029 335.97C657.248 335.655 656.395 335.515 655.541 335.562C654.687 335.609 653.859 335.842 653.126 336.24C652.394 336.639 651.779 337.192 651.334 337.851C651.159 338.086 651.021 338.33 650.857 338.602C650.82 338.564 650.788 338.526 650.751 338.492C650.48 338.225 650.191 337.972 649.887 337.736C649.151 337.159 648.248 336.785 647.284 336.657C646.32 336.529 645.335 336.652 644.446 337.014C642.474 337.779 641.424 339.229 641.074 341.11C640.979 341.493 640.989 341.89 640.963 342.277Z" fill="black"/>
<path d="M662.208 363.597C668.751 361.171 685.061 356.065 705.306 359.726C716.248 361.725 726.552 365.923 735.45 372.01L700.29 402.632C681.615 393.928 660.934 389.31 639.917 389.151L662.208 363.597Z" fill="white" stroke="black" stroke-width="2" stroke-linejoin="round"/>
<path d="M662.945 363.597C665.066 367.598 668.884 372.91 675.082 374.384C677.123 374.852 679.253 374.903 681.318 374.532C688.391 373.417 704.972 372.541 735.45 372.01" fill="white"/>
<path d="M662.945 363.597C665.066 367.598 668.884 372.91 675.082 374.384C677.123 374.852 679.253 374.903 681.318 374.532C688.391 373.417 704.972 372.541 735.45 372.01" stroke="black" stroke-width="2" stroke-linejoin="round"/>
<path d="M570.063 368.813C588.85 370.689 603.882 372.039 614.566 373.288C618.278 373.718 625.41 374.604 631.645 370.948C633.743 369.693 635.545 368.076 636.947 366.191" stroke="black" stroke-width="2" stroke-linejoin="round"/>
<path d="M618.296 374.537L618.418 375.016C618.418 375.016 618.455 375.059 618.465 375.078C618.616 375.38 618.835 375.651 619.107 375.872C619.896 376.481 620.809 376.944 621.795 377.236C624.313 378.024 626.923 378.545 629.574 378.792C629.819 378.82 630.068 378.767 630.274 378.643C632.21 377.563 634.036 376.33 635.73 374.958C636.67 374.233 637.469 373.371 638.095 372.408C638.906 371.034 638.583 369.91 636.992 369.091C635.666 368.484 634.147 368.315 632.697 368.613C631.088 368.812 629.597 369.485 628.455 370.527C628.285 370.69 628.153 370.862 627.994 371.034L627.888 370.987C627.611 370.859 627.326 370.747 627.034 370.652C625.266 370.171 623.367 370.278 621.679 370.953C619.738 371.671 618.72 372.666 618.386 373.824C618.335 374.059 618.305 374.298 618.296 374.537V374.537Z" fill="black"/>
<path d="M685.788 374.661L685.714 375.14C685.696 375.16 685.682 375.182 685.672 375.207C685.552 375.52 685.361 375.807 685.11 376.049C684.386 376.719 683.523 377.254 682.57 377.623C680.14 378.609 677.592 379.338 674.977 379.796C674.734 379.842 674.481 379.81 674.261 379.705C672.227 378.786 670.287 377.705 668.466 376.475C667.457 375.826 666.575 375.031 665.857 374.12C664.913 372.819 665.125 371.675 666.631 370.732C667.893 370.015 669.395 369.72 670.873 369.9C672.501 369.97 674.057 370.527 675.295 371.483C675.481 371.632 675.629 371.79 675.825 371.962L675.931 371.905C676.193 371.756 676.464 371.622 676.743 371.503C678.457 370.881 680.361 370.835 682.109 371.373C684.113 371.933 685.226 372.843 685.672 373.972C685.731 374.199 685.77 374.429 685.788 374.661V374.661Z" fill="black"/>
<path d="M260.873 253.408L263.885 245.478L241.302 233.156C245.094 229.15 248.604 220.398 245.603 215.043C244.95 214.112 244.098 213.309 243.096 212.68C242.095 212.051 240.964 211.61 239.77 211.382C237.812 211.05 235.788 211.317 234.017 212.138L217.808 242.569C218.632 243.498 219.682 244.243 220.878 244.746C225.146 246.522 229.494 244.296 230.035 244.009L260.873 253.408Z" fill="white" stroke="black" stroke-width="2" stroke-linecap="round" stroke-linejoin="round"/>
<path d="M252.534 259.64L259.211 256.19L249.964 241.613L243.287 245.063L252.534 259.64Z" fill="black"/>
<path d="M290.126 260.471C289.733 259.514 284.961 248.359 274.987 245.808C272.352 245.168 269.604 244.995 266.896 245.301C264.055 245.658 261.364 246.672 259.086 248.244C254.467 251.508 253.38 256.159 253.115 257.514C252.443 253.404 251.768 249.291 251.09 245.172C251.09 245.172 260.798 239.501 252.352 229.241L231.222 240.162L249.732 269.353C250.217 270.137 250.916 270.796 251.763 271.267C253.916 272.435 256.424 272.578 258.2 271.655C260.851 270.262 262.05 266.391 259.982 263.089C259.139 261.753 259.451 261.414 259.6 260.634C259.791 259.648 263.54 255.068 269.038 255.566C273.948 256.011 276.371 260.165 276.557 260.495L290.126 260.471Z" fill="white" stroke="black" stroke-width="2" stroke-linecap="round" stroke-linejoin="round"/>
<path d="M251.09 245.191C251.09 245.191 248.576 247.071 245.623 245.98L251.09 245.191Z" fill="white"/>
<path d="M251.09 245.191C251.09 245.191 248.576 247.071 245.623 245.98" stroke="black" stroke-width="2" stroke-linecap="round" stroke-linejoin="round"/>
<path d="M618.157 310.646L621.169 302.717L598.591 290.394C602.377 286.389 605.893 277.636 602.886 272.282C602.233 271.351 601.381 270.547 600.38 269.917C599.378 269.288 598.247 268.845 597.054 268.616C595.094 268.285 593.067 268.552 591.295 269.377L575.086 299.807C575.914 300.735 576.966 301.48 578.161 301.985C582.403 303.755 586.772 301.535 587.313 301.248L618.157 310.646Z" fill="white" stroke="black" stroke-width="2" stroke-linecap="round" stroke-linejoin="round"/>
<path d="M609.811 316.847L616.488 313.397L607.242 298.82L600.565 302.27L609.811 316.847Z" fill="black"/>
<path d="M646.879 316.542C643.035 308.885 636.884 304.196 632.276 303.047C629.635 302.429 626.89 302.257 624.18 302.54C623.089 302.684 622.015 302.918 620.972 303.239C619.325 303.779 617.776 304.535 616.375 305.483C611.756 308.747 610.664 313.398 610.404 314.752C609.725 310.637 609.05 306.523 608.379 302.411C608.379 302.411 618.082 296.74 609.641 286.48L588.511 297.4L607.016 326.591C607.503 327.374 608.201 328.033 609.047 328.506C611.2 329.673 613.708 329.817 615.489 328.893C618.14 327.501 619.339 323.629 617.265 320.327C616.422 318.992 616.735 318.652 616.889 317.872C617.075 316.887 620.823 312.307 626.327 312.805C631.232 313.25 633.66 317.403 633.841 317.734L646.879 316.542Z" fill="white" stroke="black" stroke-width="2" stroke-linecap="round" stroke-linejoin="round"/>
<path d="M608.379 302.411C608.379 302.411 605.866 304.291 602.912 303.2L608.379 302.411Z" fill="white"/>
<path d="M608.379 302.411C608.379 302.411 605.866 304.291 602.912 303.2" stroke="black" stroke-width="2" stroke-linecap="round" stroke-linejoin="round"/>
<path d="M513.865 340.335L527.699 339.838" stroke="black" stroke-width="2" stroke-miterlimit="10"/>
<path d="M410.453 261.94C410.341 262.352 409.923 263.314 407.876 264.209C408.03 264.687 408.448 266.29 407.473 267.305C406.174 268.659 402.611 268.769 399.44 266.601C398.91 267.491 397.849 268.932 396.057 269.315C394.599 269.63 392.748 269.224 389.365 266.573C382 260.83 382.138 255.973 378.421 255.595C375.171 255.265 373.119 258.763 369.36 257.801C369.004 257.71 367.403 257.322 367.011 256.279C366.48 254.843 368.49 252.59 372.361 250.8C371.889 249.881 370.68 247.182 371.936 244.383C372.724 242.745 374.074 241.38 375.786 240.487C375.068 236.911 373.105 233.636 370.181 231.136C370.489 229.911 370.768 228.619 371.019 227.26C371.396 225.212 371.645 223.269 371.804 221.451C375.069 222.133 378.095 223.536 380.611 225.533C387.26 230.873 387.462 238.453 387.472 239.889C388.718 240.564 393.724 243.354 397.239 247.45C399.155 249.684 400.68 252.169 401.762 254.82C407.775 256.643 411.057 259.782 410.453 261.94Z" fill="white" stroke="black" stroke-width="2" stroke-linecap="round" stroke-linejoin="round"/>
<path d="M160.001 94.3017C177.44 94.3017 191.577 81.543 191.577 65.8044C191.577 50.0658 177.44 37.3071 160.001 37.3071C142.563 37.3071 128.426 50.0658 128.426 65.8044C128.426 81.543 142.563 94.3017 160.001 94.3017Z" fill="black" stroke="black" stroke-width="2" stroke-linecap="round" stroke-linejoin="round"/>
<path d="M40.1473 205.635C61.7677 205.635 79.2946 189.817 79.2946 170.304C79.2946 150.791 61.7677 134.973 40.1473 134.973C18.5268 134.973 1 150.791 1 170.304C1 189.817 18.5268 205.635 40.1473 205.635Z" fill="black" stroke="black" stroke-width="2" stroke-linecap="round" stroke-linejoin="round"/>
<path d="M109.231 254.03C123.109 254.03 134.359 243.876 134.359 231.352C134.359 218.827 123.109 208.673 109.231 208.673C95.3536 208.673 84.1035 218.827 84.1035 231.352C84.1035 243.876 95.3536 254.03 109.231 254.03Z" fill="black" stroke="black" stroke-width="2" stroke-linecap="round" stroke-linejoin="round"/>
<path d="M302.439 94.3017C319.877 94.3017 334.014 81.543 334.014 65.8044C334.014 50.0658 319.877 37.3071 302.439 37.3071C285 37.3071 270.863 50.0658 270.863 65.8044C270.863 81.543 285 94.3017 302.439 94.3017Z" fill="black" stroke="black" stroke-width="2" stroke-linecap="round" stroke-linejoin="round"/>
<path d="M229.909 97.1012C259.313 97.1012 283.15 75.5882 283.15 49.0506C283.15 22.513 259.313 1 229.909 1C200.505 1 176.668 22.513 176.668 49.0506C176.668 75.5882 200.505 97.1012 229.909 97.1012Z" fill="black" stroke="black" stroke-width="2" stroke-linecap="round" stroke-linejoin="round"/>
<path d="M229.909 129.187C259.313 129.187 283.15 107.674 283.15 81.1365C283.15 54.5989 259.313 33.0859 229.909 33.0859C200.505 33.0859 176.668 54.5989 176.668 81.1365C176.668 107.674 200.505 129.187 229.909 129.187Z" fill="black" stroke="black" stroke-width="2" stroke-linecap="round" stroke-linejoin="round"/>
</svg>
