<svg width="1318" height="678" viewBox="0 0 1318 678" fill="none" xmlns="http://www.w3.org/2000/svg">
<path d="M435 622.495C435 614.829 398.59 608.051 342.839 603.941C343.255 603.189 343.472 602.381 343.478 601.565C343.478 589.031 290.772 578.868 225.76 578.868C160.747 578.868 108.042 589.031 108.042 601.565C108.043 602.002 108.108 602.438 108.236 602.864C43.511 606.797 0 614.114 0 622.495C0 628.391 21.5148 633.752 56.7877 637.787C52.896 640.174 50.7695 642.743 50.7695 645.422C50.7695 657.958 97.1693 668.121 154.415 668.121C183.399 668.121 209.598 665.514 228.404 661.312C237.301 670.864 266.429 677.868 300.993 677.868C342.625 677.868 376.377 667.706 376.377 655.169C376.377 649.301 368.978 643.953 356.835 639.923C404.602 635.759 435 629.496 435 622.495Z" fill="black"/>
<path d="M743.209 562.126H603.913C599.125 562.126 595.244 566.007 595.244 570.795V600.423C595.244 605.21 599.125 609.091 603.913 609.091H743.209C747.997 609.091 751.878 605.21 751.878 600.423V570.795C751.878 566.007 747.997 562.126 743.209 562.126Z" fill="white" stroke="black" stroke-width="5" stroke-miterlimit="10"/>
<path d="M600.509 564.278L673.22 590.689L746.786 564.278" stroke="black" stroke-width="5" stroke-linecap="round" stroke-linejoin="round"/>
<path d="M693.363 584.787V585.695C693.334 585.737 693.312 585.782 693.295 585.83C693.148 586.447 692.861 587.022 692.455 587.509C691.215 588.948 689.707 590.132 688.016 590.996C683.565 593.389 678.875 595.307 674.023 596.718C673.567 596.867 673.076 596.867 672.62 596.718C668.474 595.489 664.434 593.927 660.539 592.046C658.454 591.104 656.53 589.839 654.84 588.297C652.658 586.1 652.733 583.933 655.357 581.855C657.18 580.401 659.857 579.516 663.261 579.366C666.386 579.114 669.515 579.787 672.26 581.3C672.65 581.533 673.01 581.795 673.37 582.05L673.55 581.923C674.016 581.587 674.502 581.279 675.005 581C678.198 579.453 681.797 578.947 685.294 579.553C689.313 580.138 691.72 581.57 692.898 583.558C693.092 583.951 693.248 584.363 693.363 584.787V584.787Z" fill="black"/>
<path d="M876.605 525.772L740.841 556.94C736.174 558.011 733.26 562.662 734.331 567.328L740.961 596.205C742.032 600.871 746.684 603.785 751.35 602.714L887.114 571.546C891.78 570.475 894.695 565.824 893.623 561.158L886.994 532.281C885.922 527.615 881.271 524.701 876.605 525.772Z" fill="white" stroke="black" stroke-width="5" stroke-miterlimit="10"/>
<path d="M737.982 559.824L814.766 569.302L880.555 527.099" stroke="black" stroke-width="5" stroke-linecap="round" stroke-linejoin="round"/>
<path d="M833.071 559.044L833.281 559.929C833.275 559.979 833.275 560.029 833.281 560.079C833.277 560.713 833.126 561.337 832.838 561.901C831.947 563.579 830.743 565.071 829.291 566.296C825.472 569.626 821.312 572.544 816.88 575.002C816.469 575.247 815.991 575.354 815.515 575.309C811.198 575.04 806.909 574.42 802.692 573.457C800.444 573.002 798.283 572.195 796.288 571.065C793.67 569.408 793.288 567.315 795.35 564.668C796.85 562.839 799.19 561.391 802.504 560.469C805.487 559.535 808.677 559.493 811.683 560.349C812.118 560.491 812.508 560.664 812.936 560.836L813.086 560.671C813.463 560.238 813.866 559.827 814.293 559.442C817.072 557.211 820.483 555.912 824.042 555.73C828.084 555.4 830.746 556.262 832.343 557.934C832.624 558.278 832.868 558.65 833.071 559.044V559.044Z" fill="black"/>
<path d="M487.347 611.063H626.643C631.43 611.063 635.312 607.182 635.312 602.395V572.767C635.312 567.979 631.43 564.098 626.643 564.098H487.347C482.559 564.098 478.678 567.979 478.678 572.767V602.395C478.678 607.182 482.559 611.063 487.347 611.063Z" fill="white" stroke="black" stroke-width="5" stroke-miterlimit="10"/>
<path d="M630.048 566.243L557.337 592.654L483.771 566.243" stroke="black" stroke-width="5" stroke-linecap="round" stroke-linejoin="round"/>
<path d="M537.164 586.753V587.667C537.192 587.707 537.215 587.749 537.232 587.795C537.379 588.412 537.666 588.987 538.071 589.475C539.31 590.917 540.818 592.104 542.511 592.969C546.963 595.359 551.653 597.276 556.504 598.691C556.96 598.837 557.451 598.837 557.907 598.691C562.054 597.466 566.095 595.904 569.988 594.019C572.076 593.077 574.002 591.812 575.694 590.27C577.869 588.072 577.802 585.905 575.177 583.828C573.347 582.373 570.678 581.488 567.265 581.338C564.141 581.084 561.01 581.757 558.267 583.273C557.869 583.506 557.517 583.768 557.149 584.023L556.969 583.896C556.501 583.562 556.015 583.254 555.514 582.973C552.321 581.425 548.722 580.919 545.226 581.526C541.206 582.111 538.799 583.543 537.621 585.53C537.434 585.924 537.281 586.333 537.164 586.753V586.753Z" fill="black"/>
<path d="M438.402 618.427L574.166 649.595C578.832 650.666 583.484 647.752 584.555 643.086L587.369 630.829C588.44 626.163 585.526 621.512 580.86 620.441L445.096 589.273C440.429 588.201 435.778 591.116 434.707 595.782L431.893 608.039C430.821 612.705 433.736 617.356 438.402 618.427Z" fill="white" stroke="black" stroke-width="5" stroke-miterlimit="10"/>
<path d="M583.845 622.544L509.207 622.672L441.272 589.819" stroke="black" stroke-width="5" stroke-linecap="round" stroke-linejoin="round"/>
<path d="M490.415 614.505L490.287 615.068C490.287 615.068 490.332 615.135 490.332 615.165C490.401 615.623 490.602 616.05 490.91 616.395C492.008 617.644 493.299 618.71 494.734 619.552C498.842 622.09 503.13 624.323 507.565 626.233C507.995 626.428 508.459 626.535 508.93 626.548C513.077 626.715 517.231 626.648 521.371 626.346C523.439 626.246 525.487 625.891 527.468 625.289C529.905 624.411 530.145 623.039 527.88 621.172C526.305 619.859 523.853 618.72 520.531 617.857C517.611 617.014 514.555 616.742 511.532 617.055C511.112 617.107 510.782 617.19 510.34 617.265C510.279 617.232 510.222 617.195 510.167 617.152C509.74 616.852 509.372 616.552 508.877 616.252C505.851 614.537 502.51 613.45 499.054 613.058C495.057 612.518 492.507 612.871 491.075 613.808C490.827 614.012 490.605 614.247 490.415 614.505V614.505Z" fill="black"/>
<path d="M836.213 542.006H696.917C692.129 542.006 688.248 545.887 688.248 550.675V580.303C688.248 585.09 692.129 588.972 696.917 588.972H836.213C841.001 588.972 844.882 585.09 844.882 580.303V550.675C844.882 545.887 841.001 542.006 836.213 542.006Z" fill="white" stroke="black" stroke-width="5" stroke-miterlimit="10"/>
<path d="M693.513 544.159L766.224 570.57L839.79 544.159" stroke="black" stroke-width="5" stroke-linecap="round" stroke-linejoin="round"/>
<path d="M786.367 564.66V565.575C786.337 565.613 786.314 565.657 786.299 565.703C786.158 566.32 785.873 566.896 785.467 567.382C784.223 568.817 782.716 570.001 781.027 570.869C776.575 573.264 771.882 575.182 767.026 576.591C766.573 576.739 766.085 576.739 765.632 576.591C761.482 575.365 757.439 573.803 753.543 571.919C751.456 570.98 749.532 569.714 747.844 568.17C745.661 565.973 745.736 563.805 748.361 561.728C750.191 560.274 752.861 559.389 756.265 559.239C759.39 558.987 762.519 559.659 765.264 561.173C765.662 561.406 766.014 561.668 766.374 561.923L766.562 561.796C767.029 561.461 767.514 561.153 768.016 560.873C771.209 559.324 774.809 558.818 778.305 559.426C782.317 560.011 784.724 561.443 785.909 563.431C786.098 563.826 786.251 564.237 786.367 564.66Z" fill="black"/>
<path d="M512.656 493.024H373.36C368.573 493.024 364.691 496.905 364.691 501.693V531.321C364.691 536.108 368.573 539.989 373.36 539.989H512.656C517.444 539.989 521.325 536.108 521.325 531.321V501.693C521.325 496.905 517.444 493.024 512.656 493.024Z" fill="white" stroke="black" stroke-width="5" stroke-miterlimit="10"/>
<path d="M369.948 495.169L442.667 521.587L516.233 495.169" stroke="black" stroke-width="5" stroke-linecap="round" stroke-linejoin="round"/>
<path d="M462.81 515.685V516.593C462.782 516.635 462.759 516.68 462.742 516.728C462.594 517.344 462.307 517.919 461.903 518.407C460.662 519.846 459.154 521.03 457.463 521.894C453.012 524.287 448.322 526.205 443.47 527.616C443.013 527.758 442.524 527.758 442.067 527.616C437.922 526.385 433.882 524.823 429.986 522.944C427.9 522 425.974 520.735 424.28 519.195C422.105 516.998 422.18 514.83 424.797 512.746C426.627 511.299 429.296 510.414 432.709 510.264C435.833 510.009 438.964 510.682 441.707 512.198C442.105 512.431 442.457 512.686 442.825 512.948L443.005 512.821C443.471 512.482 443.957 512.172 444.46 511.891C447.654 510.347 451.252 509.841 454.748 510.444C458.768 511.029 461.175 512.468 462.352 514.456C462.545 514.85 462.698 515.262 462.81 515.685Z" fill="black"/>
<path d="M692.693 478.012L556.929 509.179C552.262 510.251 549.348 514.902 550.419 519.568L557.049 548.445C558.12 553.111 562.772 556.025 567.438 554.954L703.202 523.786C707.868 522.715 710.783 518.064 709.711 513.397L703.082 484.521C702.01 479.855 697.359 476.94 692.693 478.012Z" fill="white" stroke="black" stroke-width="5" stroke-miterlimit="10"/>
<path d="M554.074 512.056L630.858 521.535L696.647 479.331" stroke="black" stroke-width="5" stroke-linecap="round" stroke-linejoin="round"/>
<path d="M649.163 511.277L649.373 512.162C649.366 512.209 649.366 512.257 649.373 512.304C649.369 512.94 649.218 513.566 648.93 514.134C648.041 515.81 646.837 517.3 645.383 518.521C641.578 521.848 637.436 524.768 633.025 527.234C632.611 527.47 632.135 527.575 631.66 527.534C627.342 527.265 623.054 526.645 618.836 525.682C616.589 525.227 614.427 524.42 612.432 523.29C609.815 521.64 609.432 519.54 611.495 516.893C612.957 515.071 615.334 513.616 618.649 512.701C621.631 511.763 624.822 511.722 627.828 512.581C628.263 512.716 628.653 512.896 629.08 513.061L629.23 512.896C629.609 512.464 630.013 512.054 630.437 511.667C633.203 509.433 636.599 508.121 640.149 507.917C644.191 507.587 646.853 508.45 648.45 510.122C648.727 510.481 648.965 510.868 649.163 511.277V511.277Z" fill="black"/>
<path d="M785.701 491.548L649.937 522.716C645.271 523.787 642.357 528.438 643.428 533.104L650.058 561.981C651.129 566.647 655.78 569.561 660.447 568.49L796.211 537.322C800.877 536.251 803.791 531.6 802.72 526.934L796.09 498.057C795.019 493.391 790.368 490.476 785.701 491.548Z" fill="white" stroke="black" stroke-width="5" stroke-miterlimit="10"/>
<path d="M647.085 525.599L723.861 535.078L789.65 492.874" stroke="black" stroke-width="5" stroke-linecap="round" stroke-linejoin="round"/>
<path d="M742.175 524.82L742.377 525.704C742.359 525.753 742.346 525.803 742.34 525.854C742.335 526.487 742.187 527.11 741.905 527.677C741.014 529.354 739.81 530.846 738.358 532.071C734.552 535.398 730.407 538.316 725.992 540.777C725.581 541.022 725.103 541.13 724.627 541.085C720.31 540.811 716.022 540.192 711.804 539.232C709.557 538.78 707.397 537.97 705.407 536.833C702.79 535.183 702.407 533.083 704.469 530.436C705.924 528.614 708.309 527.167 711.616 526.244C714.599 525.31 717.789 525.268 720.795 526.124C721.237 526.267 721.62 526.439 722.047 526.612L722.197 526.447C722.577 526.013 722.983 525.602 723.412 525.217C726.178 522.993 729.572 521.695 733.116 521.505C737.158 521.175 739.865 522.037 741.425 523.71C741.709 524.056 741.96 524.427 742.175 524.82V524.82Z" fill="black"/>
<path d="M468.767 523.792L604.531 554.96C609.198 556.031 613.849 553.117 614.92 548.451L621.55 519.574C622.621 514.908 619.707 510.257 615.041 509.185L479.277 478.018C474.61 476.946 469.959 479.86 468.888 484.527L462.258 513.403C461.187 518.069 464.101 522.721 468.767 523.792Z" fill="white" stroke="black" stroke-width="5" stroke-miterlimit="10"/>
<path d="M617.854 512.056L541.071 521.535L475.281 479.331" stroke="black" stroke-width="5" stroke-linecap="round" stroke-linejoin="round"/>
<path d="M522.758 511.277L522.556 512.162C522.559 512.209 522.559 512.257 522.556 512.304C522.559 512.94 522.71 513.566 522.998 514.134C523.887 515.81 525.092 517.3 526.545 518.521C530.35 521.848 534.492 524.768 538.904 527.234C539.318 527.47 539.794 527.575 540.269 527.534C544.586 527.265 548.875 526.646 553.092 525.682C555.34 525.227 557.501 524.42 559.496 523.29C562.113 521.64 562.496 519.54 560.434 516.893C558.934 515.071 556.594 513.616 553.279 512.701C550.298 511.763 547.106 511.722 544.101 512.581C543.666 512.716 543.283 512.896 542.848 513.061L542.698 512.896C542.319 512.464 541.916 512.054 541.491 511.667C538.728 509.433 535.334 508.121 531.787 507.917C527.738 507.587 525.038 508.45 523.478 510.122C523.202 510.483 522.961 510.87 522.758 511.277Z" fill="black"/>
<path d="M580.359 590.944H719.655C724.443 590.944 728.324 587.063 728.324 582.276V552.648C728.324 547.86 724.443 543.979 719.655 543.979H580.359C575.572 543.979 571.69 547.86 571.69 552.648V582.276C571.69 587.063 575.572 590.944 580.359 590.944Z" fill="white" stroke="black" stroke-width="5" stroke-miterlimit="10"/>
<path d="M723.058 546.124L650.34 572.542L576.773 546.124" stroke="black" stroke-width="5" stroke-linecap="round" stroke-linejoin="round"/>
<path d="M630.197 566.633V567.548C630.223 567.591 630.245 567.636 630.265 567.683C630.409 568.299 630.694 568.874 631.097 569.362C632.341 570.797 633.848 571.981 635.537 572.849C639.992 575.237 644.684 577.155 649.537 578.571C649.991 578.713 650.478 578.713 650.932 578.571C655.081 577.339 659.124 575.774 663.021 573.892C665.108 572.952 667.031 571.687 668.72 570.142C670.902 567.953 670.827 565.785 668.203 563.701C666.373 562.246 663.703 561.369 660.291 561.211C657.166 560.96 654.036 561.636 651.292 563.153C650.895 563.386 650.542 563.641 650.182 563.903L649.995 563.768C649.527 563.435 649.041 563.127 648.54 562.846C645.346 561.301 641.748 560.795 638.251 561.399C634.239 561.983 631.832 563.416 630.647 565.403C630.462 565.799 630.311 566.21 630.197 566.633Z" fill="black"/>
<path d="M436.489 553.414L572.253 584.582C576.919 585.653 581.571 582.739 582.642 578.073L589.272 549.196C590.343 544.53 587.429 539.879 582.762 538.807L446.998 507.64C442.332 506.568 437.681 509.483 436.609 514.149L429.98 543.025C428.908 547.692 431.823 552.343 436.489 553.414Z" fill="white" stroke="black" stroke-width="5" stroke-miterlimit="10"/>
<path d="M585.578 541.677L508.795 551.155L443.005 508.952" stroke="black" stroke-width="5" stroke-linecap="round" stroke-linejoin="round"/>
<path d="M490.482 540.897L490.279 541.782C490.286 541.829 490.286 541.877 490.279 541.924C490.284 542.557 490.432 543.18 490.714 543.746C491.603 545.425 492.808 546.917 494.261 548.141C498.067 551.468 502.212 554.386 506.627 556.847C507.038 557.092 507.516 557.199 507.992 557.154C512.31 556.884 516.598 556.265 520.816 555.302C523.061 554.847 525.219 554.039 527.212 552.91C529.83 551.26 530.212 549.16 528.15 546.513C526.695 544.691 524.31 543.236 520.996 542.322C518.016 541.384 514.827 541.342 511.824 542.202C511.382 542.337 510.999 542.517 510.572 542.681L510.422 542.516C510.04 542.084 509.634 541.674 509.207 541.287C506.444 539.053 503.05 537.741 499.503 537.537C495.461 537.207 492.754 538.07 491.194 539.742C490.923 540.105 490.685 540.492 490.482 540.897Z" fill="black"/>
<path d="M870.312 497.021H731.016C726.228 497.021 722.347 500.903 722.347 505.69V535.318C722.347 540.106 726.228 543.987 731.016 543.987H870.312C875.099 543.987 878.98 540.106 878.98 535.318V505.69C878.98 500.903 875.099 497.021 870.312 497.021Z" fill="white" stroke="black" stroke-width="5" stroke-miterlimit="10"/>
<path d="M727.604 499.173L800.323 525.584L873.89 499.173" stroke="black" stroke-width="5" stroke-linecap="round" stroke-linejoin="round"/>
<path d="M820.465 519.668V520.575C820.437 520.617 820.414 520.662 820.398 520.71C820.249 521.326 819.962 521.901 819.558 522.39C818.317 523.828 816.81 525.012 815.118 525.877C810.667 528.269 805.977 530.187 801.125 531.598C800.669 531.744 800.179 531.744 799.723 531.598C795.576 530.37 791.536 528.808 787.642 526.926C785.555 525.982 783.63 524.717 781.935 523.177C779.76 520.98 779.835 518.813 782.452 516.728C784.282 515.281 786.952 514.396 790.364 514.246C793.488 513.991 796.619 514.664 799.363 516.181C799.76 516.413 800.113 516.675 800.48 516.93L800.66 516.803C801.128 516.467 801.614 516.157 802.115 515.873C805.302 514.331 808.891 513.822 812.381 514.418C816.401 515.003 818.808 516.443 819.985 518.43C820.185 518.826 820.346 519.24 820.465 519.668V519.668Z" fill="black"/>
<path d="M1003.7 460.665L867.933 491.833C863.266 492.905 860.352 497.556 861.423 502.222L868.053 531.098C869.124 535.765 873.776 538.679 878.442 537.608L1014.21 506.44C1018.87 505.369 1021.79 500.717 1020.72 496.051L1014.09 467.175C1013.01 462.508 1008.36 459.594 1003.7 460.665Z" fill="white" stroke="black" stroke-width="5" stroke-miterlimit="10"/>
<path d="M865.085 494.719L941.868 504.198L1007.66 461.994" stroke="black" stroke-width="5" stroke-linecap="round" stroke-linejoin="round"/>
<path d="M960.174 493.939L960.384 494.824C960.377 494.874 960.377 494.924 960.384 494.974C960.38 495.608 960.229 496.232 959.941 496.796C959.05 498.474 957.846 499.966 956.394 501.19C952.579 504.525 948.424 507.451 943.998 509.919C943.585 510.157 943.109 510.265 942.633 510.227C938.316 509.954 934.028 509.335 929.81 508.374C927.562 507.917 925.401 507.107 923.406 505.975C920.789 504.325 920.406 502.225 922.468 499.578C923.968 497.756 926.308 496.309 929.622 495.386C932.604 494.448 935.796 494.407 938.801 495.266C939.236 495.409 939.626 495.581 940.054 495.754C940.106 495.694 940.151 495.634 940.204 495.581C940.583 495.152 940.986 494.744 941.411 494.359C944.173 492.123 947.567 490.812 951.115 490.61C955.164 490.28 957.864 491.142 959.424 492.807C959.709 493.159 959.961 493.539 960.174 493.939V493.939Z" fill="black"/>
<path d="M614.449 545.951H753.745C758.533 545.951 762.414 542.07 762.414 537.283V507.655C762.414 502.867 758.533 498.986 753.745 498.986H614.449C609.661 498.986 605.78 502.867 605.78 507.655V537.283C605.78 542.07 609.661 545.951 614.449 545.951Z" fill="white" stroke="black" stroke-width="5" stroke-miterlimit="10"/>
<path d="M757.151 501.138L684.439 527.549L610.873 501.138" stroke="black" stroke-width="5" stroke-linecap="round" stroke-linejoin="round"/>
<path d="M664.289 521.647V522.562C664.319 522.6 664.342 522.644 664.357 522.69C664.504 523.307 664.791 523.881 665.196 524.369C666.437 525.808 667.945 526.992 669.636 527.856C674.085 530.252 678.776 532.17 683.629 533.578C684.085 533.727 684.576 533.727 685.032 533.578C689.179 532.352 693.219 530.79 697.113 528.906C699.199 527.967 701.123 526.701 702.812 525.157C704.994 522.96 704.919 520.792 702.295 518.715C700.472 517.26 697.795 516.376 694.39 516.226C691.266 515.974 688.136 516.646 685.392 518.16C685.002 518.393 684.642 518.655 684.282 518.91L684.102 518.783C683.634 518.449 683.148 518.142 682.647 517.86C679.453 516.313 675.855 515.806 672.358 516.413C668.339 516.998 665.931 518.43 664.754 520.417C664.559 520.811 664.404 521.223 664.289 521.647V521.647Z" fill="black"/>
<path d="M470.578 508.424L606.342 539.592C611.008 540.663 615.659 537.749 616.731 533.083L623.361 504.206C624.432 499.54 621.518 494.889 616.851 493.818L481.087 462.65C476.421 461.579 471.77 464.493 470.698 469.159L464.069 498.036C462.997 502.702 465.912 507.353 470.578 508.424Z" fill="white" stroke="black" stroke-width="5" stroke-miterlimit="10"/>
<path d="M619.669 496.691L542.893 506.162L477.104 463.959" stroke="black" stroke-width="5" stroke-linecap="round" stroke-linejoin="round"/>
<path d="M524.58 495.904L524.37 496.796C524.377 496.844 524.377 496.892 524.37 496.939C524.374 497.572 524.525 498.196 524.813 498.761C525.704 500.439 526.908 501.93 528.36 503.155C532.163 506.482 536.305 509.4 540.718 511.861C541.13 512.104 541.607 512.211 542.083 512.169C546.401 511.9 550.689 511.28 554.906 510.317C557.154 509.862 559.315 509.055 561.311 507.925C563.928 506.267 564.31 504.175 562.248 501.528C560.748 499.706 558.409 498.251 555.094 497.329C552.111 496.393 548.92 496.353 545.915 497.216C545.48 497.351 545.09 497.531 544.663 497.696L544.513 497.531C544.135 497.097 543.732 496.687 543.305 496.301C540.531 494.057 537.12 492.745 533.557 492.552C529.515 492.222 526.852 493.084 525.255 494.757C524.992 495.115 524.766 495.5 524.58 495.904V495.904Z" fill="black"/>
<path d="M963.316 476.901H824.021C819.233 476.901 815.352 480.782 815.352 485.57V515.198C815.352 519.986 819.233 523.867 824.021 523.867H963.316C968.104 523.867 971.985 519.986 971.985 515.198V485.57C971.985 480.782 968.104 476.901 963.316 476.901Z" fill="white" stroke="black" stroke-width="5" stroke-miterlimit="10"/>
<path d="M820.615 479.054L893.327 505.465L966.893 479.054" stroke="black" stroke-width="5" stroke-linecap="round" stroke-linejoin="round"/>
<path d="M913.469 499.563V500.471C913.44 500.512 913.418 500.558 913.401 500.606C913.26 501.223 912.975 501.799 912.569 502.285C911.325 503.72 909.818 504.904 908.129 505.772C903.673 508.164 898.978 510.082 894.121 511.494C893.668 511.642 893.18 511.642 892.726 511.494C888.578 510.265 884.535 508.702 880.638 506.822C878.553 505.88 876.629 504.615 874.938 503.073C872.756 500.876 872.831 498.708 875.456 496.624C877.286 495.176 879.955 494.292 883.36 494.142C886.484 493.89 889.614 494.562 892.359 496.076C892.756 496.309 893.109 496.571 893.469 496.826C893.536 496.781 893.589 496.736 893.656 496.699C894.123 496.361 894.609 496.051 895.111 495.769C898.306 494.226 901.904 493.723 905.4 494.329C909.412 494.914 911.819 496.346 913.004 498.333C913.196 498.728 913.351 499.14 913.469 499.563V499.563Z" fill="black"/>
<path d="M929.079 611.148H772.22C767.432 611.148 763.551 615.029 763.551 619.817V640.956C763.551 645.743 767.432 649.624 772.22 649.624H929.079C933.866 649.624 937.747 645.743 937.747 640.956V619.817C937.747 615.029 933.866 611.148 929.079 611.148Z" fill="white" stroke="black" stroke-width="5" stroke-miterlimit="10"/>
<path d="M769.399 612.911L850.27 634.545L932.085 612.911" stroke="black" stroke-width="5" stroke-linecap="round" stroke-linejoin="round"/>
<path d="M872.67 629.715V630.465C872.67 630.503 872.61 630.54 872.595 630.57C872.419 631.106 872.1 631.583 871.673 631.95C870.2 633.177 868.529 634.143 866.731 634.807C861.679 636.795 856.472 638.363 851.163 639.494C850.652 639.614 850.121 639.614 849.61 639.494C845.054 638.506 840.566 637.228 836.172 635.669C833.928 634.929 831.794 633.89 829.828 632.58C827.398 630.78 827.488 629.01 830.405 627.331C832.437 626.146 835.377 625.418 839.202 625.298C842.602 625.081 846.009 625.622 849.175 626.881C849.618 627.076 849.993 627.286 850.413 627.496L850.615 627.391C851.155 627.136 851.628 626.858 852.235 626.641C855.906 625.362 859.824 624.956 863.679 625.456C868.178 625.936 870.818 627.113 872.138 628.74C872.352 629.044 872.531 629.371 872.67 629.715V629.715Z" fill="black"/>
<path d="M639.759 427.919H500.463C495.675 427.919 491.794 431.801 491.794 436.588V466.216C491.794 471.004 495.675 474.885 500.463 474.885H639.759C644.547 474.885 648.428 471.004 648.428 466.216V436.588C648.428 431.801 644.547 427.919 639.759 427.919Z" fill="white" stroke="black" stroke-width="5" stroke-miterlimit="10"/>
<path d="M497.051 430.064L569.77 456.482L643.336 430.064" stroke="black" stroke-width="5" stroke-linecap="round" stroke-linejoin="round"/>
<path d="M589.912 450.581V451.488C589.884 451.53 589.861 451.575 589.845 451.623C589.694 452.239 589.407 452.813 589.005 453.303C587.764 454.741 586.257 455.925 584.565 456.79C580.114 459.181 575.424 461.099 570.572 462.511C570.115 462.654 569.626 462.654 569.17 462.511C565.024 461.28 560.984 459.718 557.089 457.84C555.002 456.895 553.077 455.63 551.382 454.09C549.207 451.9 549.274 449.733 551.899 447.649C553.729 446.201 556.399 445.316 559.811 445.159C562.936 444.907 566.067 445.582 568.81 447.101C569.207 447.334 569.56 447.589 569.927 447.851L570.107 447.724C570.573 447.385 571.059 447.075 571.562 446.794C574.756 445.249 578.354 444.743 581.851 445.346C585.87 445.931 588.27 447.371 589.455 449.351C589.642 449.747 589.795 450.158 589.912 450.581V450.581Z" fill="black"/>
<path d="M819.784 412.898L684.02 444.066C679.354 445.137 676.44 449.788 677.511 454.454L684.141 483.331C685.212 487.997 689.863 490.911 694.53 489.84L830.294 458.672C834.96 457.601 837.874 452.95 836.803 448.284L830.173 419.407C829.102 414.741 824.451 411.827 819.784 412.898Z" fill="white" stroke="black" stroke-width="5" stroke-miterlimit="10"/>
<path d="M681.177 446.952L757.96 456.43L823.75 414.227" stroke="black" stroke-width="5" stroke-linecap="round" stroke-linejoin="round"/>
<path d="M776.265 446.179L776.467 447.063C776.464 447.111 776.464 447.158 776.467 447.206C776.464 447.839 776.313 448.463 776.025 449.028C775.136 450.707 773.932 452.199 772.478 453.422C768.675 456.749 764.533 459.667 760.119 462.129C759.708 462.371 759.23 462.478 758.755 462.436C754.437 462.167 750.148 461.548 745.931 460.584C743.684 460.129 741.522 459.322 739.527 458.192C736.91 456.542 736.527 454.442 738.589 451.795C740.089 449.973 742.429 448.518 745.744 447.603C748.726 446.665 751.917 446.623 754.923 447.483C755.358 447.618 755.747 447.798 756.175 447.963L756.325 447.798C756.702 447.364 757.105 446.954 757.532 446.568C760.296 444.336 763.689 443.025 767.236 442.819C771.286 442.489 773.985 443.351 775.545 445.024C775.823 445.383 776.065 445.77 776.265 446.179V446.179Z" fill="black"/>
<path d="M912.8 426.44L777.036 457.608C772.37 458.679 769.455 463.331 770.527 467.997L777.156 496.873C778.228 501.54 782.879 504.454 787.545 503.383L923.309 472.215C927.976 471.143 930.89 466.492 929.819 461.826L923.189 432.949C922.118 428.283 917.466 425.369 912.8 426.44Z" fill="white" stroke="black" stroke-width="5" stroke-miterlimit="10"/>
<path d="M774.181 460.494L850.964 469.972L916.754 427.769" stroke="black" stroke-width="5" stroke-linecap="round" stroke-linejoin="round"/>
<path d="M869.276 459.714L869.479 460.599C869.459 460.647 869.447 460.698 869.441 460.749C869.437 461.382 869.288 462.005 869.006 462.572C868.116 464.249 866.912 465.741 865.459 466.966C861.652 470.29 857.507 473.208 853.093 475.672C852.68 475.911 852.204 476.019 851.729 475.979C847.411 475.706 843.123 475.087 838.905 474.127C836.66 473.668 834.501 472.858 832.508 471.728C829.891 470.078 829.509 467.978 831.571 465.331C833.026 463.509 835.41 462.054 838.718 461.139C841.699 460.201 844.891 460.159 847.896 461.019C848.339 461.162 848.721 461.334 849.149 461.507C849.201 461.447 849.246 461.387 849.299 461.334C849.678 460.905 850.081 460.497 850.506 460.112C853.281 457.869 856.692 456.557 860.255 456.363C864.297 456.033 867.004 456.895 868.564 458.56C868.835 458.923 869.074 459.309 869.276 459.714V459.714Z" fill="black"/>
<path d="M595.863 458.682L731.627 489.85C736.293 490.921 740.945 488.007 742.016 483.341L748.646 454.464C749.717 449.798 746.803 445.147 742.136 444.075L606.372 412.908C601.706 411.836 597.055 414.751 595.984 419.417L589.354 448.293C588.282 452.96 591.197 457.611 595.863 458.682Z" fill="white" stroke="black" stroke-width="5" stroke-miterlimit="10"/>
<path d="M744.949 446.952L668.173 456.43L602.384 414.227" stroke="black" stroke-width="5" stroke-linecap="round" stroke-linejoin="round"/>
<path d="M649.861 446.179L649.658 447.063C649.662 447.111 649.662 447.158 649.658 447.206C649.662 447.839 649.813 448.463 650.101 449.028C650.99 450.707 652.194 452.199 653.648 453.422C657.451 456.749 661.593 459.667 666.006 462.129C666.418 462.371 666.895 462.478 667.371 462.436C671.689 462.167 675.977 461.548 680.195 460.584C682.442 460.129 684.604 459.322 686.599 458.192C689.216 456.542 689.598 454.442 687.536 451.795C686.074 449.973 683.697 448.518 680.382 447.603C677.4 446.665 674.208 446.623 671.203 447.483C670.768 447.618 670.378 447.798 669.951 447.963L669.801 447.798C669.423 447.364 669.02 446.954 668.593 446.568C665.83 444.336 662.436 443.025 658.89 442.819C654.84 442.489 652.14 443.351 650.581 445.024C650.302 445.383 650.061 445.77 649.861 446.179Z" fill="black"/>
<path d="M707.461 525.839H846.757C851.545 525.839 855.426 521.958 855.426 517.17V487.542C855.426 482.755 851.545 478.874 846.757 478.874H707.461C702.673 478.874 698.792 482.755 698.792 487.542V517.17C698.792 521.958 702.673 525.839 707.461 525.839Z" fill="white" stroke="black" stroke-width="5" stroke-miterlimit="10"/>
<path d="M850.154 481.019L777.442 507.429L703.876 481.019" stroke="black" stroke-width="5" stroke-linecap="round" stroke-linejoin="round"/>
<path d="M757.3 501.528V502.42C757.325 502.461 757.348 502.504 757.367 502.548C757.508 503.166 757.793 503.741 758.2 504.228C759.443 505.665 760.95 506.851 762.639 507.722C767.095 510.11 771.787 512.028 776.64 513.444C777.093 513.592 777.582 513.592 778.035 513.444C782.185 512.218 786.228 510.655 790.123 508.772C792.208 507.829 794.131 506.564 795.823 505.023C798.005 502.825 797.93 500.658 795.305 498.581C793.475 497.126 790.806 496.241 787.394 496.091C784.269 495.838 781.139 496.511 778.395 498.026C777.997 498.259 777.645 498.521 777.277 498.776L777.135 498.671C776.667 498.338 776.181 498.03 775.68 497.749C772.487 496.2 768.888 495.694 765.391 496.301C761.379 496.886 758.972 498.319 757.787 500.306C757.589 500.698 757.426 501.107 757.3 501.528Z" fill="black"/>
<path d="M563.59 488.304L699.354 519.472C704.02 520.543 708.671 517.629 709.743 512.963L716.372 484.086C717.444 479.42 714.529 474.769 709.863 473.698L574.099 442.53C569.433 441.458 564.781 444.373 563.71 449.039L557.08 477.916C556.009 482.582 558.923 487.233 563.59 488.304Z" fill="white" stroke="black" stroke-width="5" stroke-miterlimit="10"/>
<path d="M712.68 476.572L635.897 486.051L570.107 443.847" stroke="black" stroke-width="5" stroke-linecap="round" stroke-linejoin="round"/>
<path d="M617.584 475.784L617.382 476.677C617.389 476.724 617.389 476.772 617.382 476.819C617.389 477.452 617.54 478.075 617.824 478.641C618.713 480.32 619.918 481.813 621.371 483.036C625.176 486.364 629.321 489.283 633.737 491.742C634.148 491.987 634.626 492.094 635.102 492.049C639.42 491.779 643.708 491.16 647.926 490.197C650.171 489.742 652.329 488.934 654.322 487.805C656.94 486.155 657.322 484.056 655.26 481.408C653.805 479.586 651.42 478.131 648.106 477.217C645.124 476.275 641.932 476.233 638.927 477.097C638.492 477.232 638.109 477.412 637.674 477.577L637.532 477.412C637.15 476.98 636.744 476.569 636.317 476.182C633.554 473.948 630.16 472.636 626.613 472.432C622.571 472.102 619.864 472.965 618.304 474.637C618.031 474.997 617.79 475.381 617.584 475.784V475.784Z" fill="black"/>
<path d="M484.538 413.795L346.187 397.592C341.432 397.035 337.126 400.439 336.569 405.194L333.122 434.621C332.565 439.376 335.969 443.682 340.724 444.239L479.074 460.442C483.829 460.999 488.136 457.595 488.693 452.84L492.139 423.413C492.696 418.658 489.293 414.352 484.538 413.795Z" fill="white" stroke="black" stroke-width="5" stroke-miterlimit="10"/>
<path d="M342.524 399.349L411.666 434.038L487.812 416.371" stroke="black" stroke-width="5" stroke-linecap="round" stroke-linejoin="round"/>
<path d="M432.364 430.521L432.259 431.428C432.227 431.465 432.199 431.505 432.177 431.548C431.959 432.145 431.607 432.683 431.149 433.123C429.748 434.404 428.113 435.404 426.335 436.07C421.633 437.926 416.749 439.286 411.764 440.127C411.295 440.213 410.811 440.153 410.377 439.955C406.4 438.251 402.568 436.228 398.918 433.903C396.947 432.722 395.175 431.237 393.669 429.501C391.764 427.072 392.087 424.927 394.936 423.165C396.924 421.935 399.653 421.365 403.08 421.612C406.207 421.738 409.227 422.781 411.764 424.612C412.132 424.889 412.432 425.182 412.784 425.482L412.979 425.377C413.482 425.097 414 424.847 414.531 424.627C417.884 423.464 421.516 423.38 424.918 424.387C428.84 425.437 431.06 427.139 432.004 429.254C432.162 429.665 432.283 430.089 432.364 430.521V430.521Z" fill="black"/>
<path d="M438.359 436.323L574.123 467.49C578.789 468.562 583.441 465.647 584.512 460.981L591.142 432.105C592.213 427.438 589.299 422.787 584.632 421.716L448.869 390.548C444.202 389.477 439.551 392.391 438.48 397.057L431.85 425.934C430.778 430.6 433.693 435.251 438.359 436.323Z" fill="white" stroke="black" stroke-width="5" stroke-miterlimit="10"/>
<path d="M587.445 424.582L510.662 434.061L444.872 391.857" stroke="black" stroke-width="5" stroke-linecap="round" stroke-linejoin="round"/>
<path d="M492.35 423.802L492.147 424.687C492.153 424.737 492.153 424.787 492.147 424.837C492.152 425.47 492.301 426.093 492.582 426.659C493.473 428.337 494.677 429.829 496.13 431.054C499.937 434.378 504.082 437.296 508.496 439.76C508.908 440 509.385 440.107 509.86 440.067C514.178 439.794 518.466 439.174 522.684 438.215C524.929 437.757 527.088 436.947 529.081 435.816C531.698 434.166 532.08 432.066 530.018 429.419C528.563 427.597 526.178 426.15 522.864 425.227C519.885 424.289 516.695 424.248 513.692 425.107C513.25 425.25 512.868 425.422 512.44 425.595L512.29 425.43C511.908 424.998 511.503 424.587 511.075 424.2C508.314 421.963 504.919 420.651 501.371 420.45C497.329 420.12 494.622 420.983 493.062 422.655C492.79 423.014 492.551 423.398 492.35 423.802V423.802Z" fill="black"/>
<path d="M573.965 435.058L709.729 466.225C714.395 467.297 719.046 464.382 720.118 459.716L726.747 430.839C727.819 426.173 724.904 421.522 720.238 420.451L584.474 389.283C579.808 388.212 575.156 391.126 574.085 395.792L567.455 424.669C566.384 429.335 569.298 433.986 573.965 435.058Z" fill="white" stroke="black" stroke-width="5" stroke-miterlimit="10"/>
<path d="M723.059 423.322L646.276 432.801L580.486 390.597" stroke="black" stroke-width="5" stroke-linecap="round" stroke-linejoin="round"/>
<path d="M627.963 422.543L627.753 423.428C627.772 423.473 627.785 423.521 627.79 423.57C627.793 424.204 627.945 424.828 628.233 425.392C629.122 427.071 630.326 428.563 631.78 429.787C635.585 433.114 639.727 436.034 644.139 438.5C644.552 438.737 645.028 438.841 645.503 438.8C649.821 438.531 654.11 437.912 658.327 436.948C660.574 436.493 662.736 435.686 664.731 434.556C667.348 432.906 667.731 430.806 665.668 428.159C664.169 426.337 661.829 424.882 658.514 423.968C655.532 423.029 652.341 422.988 649.335 423.848C648.9 423.983 648.51 424.163 648.083 424.327L647.933 424.163C647.554 423.73 647.151 423.32 646.726 422.933C643.962 420.7 640.569 419.389 637.022 419.183C632.972 418.853 630.31 419.716 628.713 421.388C628.426 421.748 628.175 422.134 627.963 422.543V422.543Z" fill="black"/>
<path d="M898.444 353.988L762.68 385.156C758.013 386.227 755.099 390.878 756.17 395.545L762.8 424.421C763.871 429.087 768.523 432.002 773.189 430.93L908.953 399.763C913.619 398.691 916.534 394.04 915.462 389.374L908.832 360.497C907.761 355.831 903.11 352.917 898.444 353.988Z" fill="white" stroke="black" stroke-width="5" stroke-miterlimit="10"/>
<path d="M759.827 388.04L836.61 397.519L902.4 355.315" stroke="black" stroke-width="5" stroke-linecap="round" stroke-linejoin="round"/>
<path d="M854.923 387.26L855.126 388.145C855.12 388.193 855.12 388.24 855.126 388.288C855.122 388.923 854.973 389.548 854.691 390.117C853.8 391.795 852.596 393.287 851.144 394.512C847.336 397.836 843.192 400.754 838.778 403.218C838.365 403.458 837.889 403.565 837.413 403.525C833.096 403.248 828.808 402.629 824.59 401.673C822.345 401.214 820.186 400.404 818.193 399.274C815.576 397.624 815.193 395.524 817.255 392.877C818.71 391.055 821.095 389.6 824.402 388.685C827.384 387.747 830.576 387.705 833.581 388.565C834.024 388.708 834.406 388.88 834.833 389.045L834.983 388.88C835.365 388.451 835.771 388.042 836.198 387.658C838.959 385.421 842.354 384.109 845.902 383.908C849.944 383.578 852.614 384.441 854.211 386.106C854.482 386.469 854.721 386.855 854.923 387.26V387.26Z" fill="black"/>
<path d="M762.829 352.734L627.065 383.902C622.399 384.973 619.485 389.624 620.556 394.291L627.186 423.167C628.257 427.834 632.908 430.748 637.575 429.676L773.339 398.509C778.005 397.437 780.919 392.786 779.848 388.12L773.218 359.243C772.147 354.577 767.496 351.663 762.829 352.734Z" fill="white" stroke="black" stroke-width="5" stroke-miterlimit="10"/>
<path d="M624.222 386.781L700.998 396.259L766.795 354.056" stroke="black" stroke-width="5" stroke-linecap="round" stroke-linejoin="round"/>
<path d="M719.31 386.001L719.512 386.886C719.505 386.933 719.505 386.981 719.512 387.028C719.509 387.662 719.357 388.286 719.07 388.85C718.181 390.529 716.976 392.021 715.523 393.245C711.709 396.568 707.557 399.481 703.134 401.936C702.722 402.178 702.245 402.285 701.769 402.243C697.453 401.989 693.164 401.385 688.946 400.436C686.698 399.981 684.537 399.174 682.542 398.044C679.924 396.394 679.542 394.294 681.604 391.647C683.066 389.825 685.444 388.37 688.758 387.455C691.74 386.517 694.932 386.476 697.937 387.336C698.372 387.47 698.755 387.65 699.19 387.815L699.34 387.65C699.717 387.217 700.12 386.806 700.547 386.421C703.314 384.2 706.708 382.902 710.251 382.709C714.3 382.379 717 383.241 718.56 384.913C718.845 385.25 719.096 385.615 719.31 386.001V386.001Z" fill="black"/>
<path d="M478.988 374.374L614.752 405.542C619.418 406.613 624.07 403.699 625.141 399.033L631.771 370.156C632.842 365.49 629.928 360.839 625.261 359.768L489.497 328.6C484.831 327.529 480.18 330.443 479.108 335.109L472.479 363.986C471.407 368.652 474.322 373.303 478.988 374.374Z" fill="white" stroke="black" stroke-width="5" stroke-miterlimit="10"/>
<path d="M628.083 362.642L551.299 372.113L485.51 329.91" stroke="black" stroke-width="5" stroke-linecap="round" stroke-linejoin="round"/>
<path d="M532.987 361.855L532.784 362.747C532.804 362.792 532.816 362.84 532.822 362.889C532.826 363.522 532.975 364.145 533.257 364.712C534.148 366.389 535.352 367.881 536.804 369.106C540.607 372.433 544.749 375.351 549.162 377.812C549.573 378.057 550.051 378.165 550.527 378.12C554.845 377.85 559.133 377.23 563.351 376.267C565.595 375.812 567.754 375.005 569.747 373.875C572.364 372.218 572.747 370.088 570.685 367.479C569.23 365.649 566.845 364.202 563.538 363.279C560.556 362.345 557.365 362.304 554.359 363.159C553.917 363.302 553.534 363.474 553.107 363.647L552.957 363.482C552.575 363.05 552.169 362.639 551.742 362.252C548.981 360.015 545.586 358.703 542.038 358.503C537.996 358.173 535.289 359.035 533.729 360.707C533.448 361.067 533.199 361.451 532.987 361.855V361.855Z" fill="black"/>
<path d="M667.863 292.045L532.099 323.213C527.432 324.284 524.518 328.935 525.589 333.602L532.219 362.478C533.29 367.145 537.942 370.059 542.608 368.988L678.372 337.82C683.038 336.748 685.953 332.097 684.881 327.431L678.251 298.554C677.18 293.888 672.529 290.974 667.863 292.045Z" fill="white" stroke="black" stroke-width="5" stroke-miterlimit="10"/>
<path d="M529.245 326.092L606.028 335.571L671.818 293.367" stroke="black" stroke-width="5" stroke-linecap="round" stroke-linejoin="round"/>
<path d="M624.341 325.313L624.544 326.198C624.537 326.247 624.537 326.298 624.544 326.348C624.54 326.98 624.391 327.603 624.109 328.17C623.218 329.848 622.014 331.339 620.562 332.564C616.754 335.889 612.61 338.806 608.196 341.27C607.783 341.509 607.307 341.617 606.831 341.578C602.514 341.305 598.226 340.685 594.008 339.725C591.762 339.269 589.602 338.46 587.611 337.326C584.994 335.676 584.611 333.576 586.673 330.929C588.128 329.107 590.513 327.66 593.82 326.737C596.802 325.799 599.994 325.758 602.999 326.617C603.434 326.76 603.824 326.932 604.251 327.105C604.304 327.045 604.349 326.985 604.401 326.932C604.781 326.503 605.184 326.095 605.609 325.71C608.373 323.473 611.77 322.161 615.32 321.961C619.362 321.631 622.024 322.493 623.622 324.158C623.898 324.519 624.139 324.906 624.341 325.313Z" fill="black"/>
<path d="M742.909 227.041L607.145 258.209C602.479 259.28 599.565 263.931 600.636 268.597L607.266 297.474C608.337 302.14 612.988 305.054 617.655 303.983L753.419 272.815C758.085 271.744 760.999 267.093 759.928 262.427L753.298 233.55C752.227 228.884 747.576 225.97 742.909 227.041Z" fill="white" stroke="black" stroke-width="5" stroke-miterlimit="10"/>
<path d="M604.303 261.093L681.079 270.564L746.876 228.368" stroke="black" stroke-width="5" stroke-linecap="round" stroke-linejoin="round"/>
<path d="M699.393 260.305L699.595 261.197C699.576 261.243 699.563 261.291 699.558 261.34C699.553 261.972 699.404 262.596 699.123 263.162C698.234 264.841 697.029 266.333 695.576 267.556C691.77 270.883 687.625 273.801 683.21 276.262C682.799 276.507 682.321 276.615 681.845 276.57C677.527 276.3 673.239 275.68 669.021 274.718C666.776 274.262 664.617 273.455 662.625 272.325C660.007 270.676 659.625 268.576 661.687 265.929C663.142 264.107 665.527 262.652 668.841 261.737C671.82 260.795 675.01 260.753 678.013 261.617C678.455 261.752 678.838 261.932 679.265 262.097L679.415 261.932C679.797 261.5 680.203 261.089 680.63 260.702C683.393 258.468 686.787 257.157 690.334 256.953C694.376 256.623 697.083 257.485 698.643 259.157C698.927 259.517 699.178 259.901 699.393 260.305V260.305Z" fill="black"/>
<path d="M498.911 193.277L634.675 224.445C639.341 225.516 643.992 222.602 645.064 217.935L651.694 189.059C652.765 184.393 649.851 179.741 645.184 178.67L509.42 147.502C504.754 146.431 500.103 149.345 499.031 154.012L492.402 182.888C491.33 187.554 494.245 192.205 498.911 193.277Z" fill="white" stroke="black" stroke-width="5" stroke-miterlimit="10"/>
<path d="M648.008 181.545L571.232 191.023L505.442 148.82" stroke="black" stroke-width="5" stroke-linecap="round" stroke-linejoin="round"/>
<path d="M552.912 180.765L552.702 181.65C552.709 181.697 552.709 181.745 552.702 181.792C552.706 182.426 552.857 183.05 553.145 183.615C554.034 185.294 555.238 186.786 556.692 188.009C560.495 191.336 564.637 194.254 569.05 196.715C569.462 196.957 569.939 197.065 570.415 197.023C574.733 196.753 579.021 196.134 583.239 195.17C585.486 194.716 587.647 193.908 589.643 192.778C592.26 191.128 592.642 189.029 590.58 186.382C589.118 184.559 586.741 183.105 583.426 182.19C580.444 181.252 577.252 181.21 574.247 182.07C573.812 182.205 573.422 182.385 572.995 182.55L572.845 182.385C572.467 181.951 572.064 181.54 571.637 181.155C568.867 178.934 565.471 177.636 561.926 177.443C557.884 177.113 555.222 177.975 553.625 179.648C553.35 179.995 553.112 180.37 552.912 180.765V180.765Z" fill="black"/>
<path d="M785.681 2.93985L649.917 34.1077C645.251 35.1789 642.336 39.83 643.408 44.4962L650.037 73.3729C651.109 78.0391 655.76 80.9533 660.426 79.8821L796.19 48.7142C800.857 47.643 803.771 42.9919 802.7 38.3257L796.07 9.44901C794.998 4.78284 790.347 1.86858 785.681 2.93985Z" fill="white" stroke="black" stroke-width="5" stroke-miterlimit="10"/>
<path d="M647.085 36.9901L723.861 46.4686L789.65 4.26514" stroke="black" stroke-width="5" stroke-linecap="round" stroke-linejoin="round"/>
<path d="M742.175 36.2097L742.377 37.0946C742.358 37.1426 742.345 37.193 742.34 37.2446C742.335 37.8772 742.187 38.5004 741.905 39.0668C741.014 40.7446 739.81 42.2362 738.358 43.4611C734.55 46.7857 730.406 49.7036 725.992 52.1673C725.579 52.4075 725.103 52.5148 724.627 52.4747C720.31 52.2011 716.022 51.5817 711.804 50.6225C709.558 50.1666 707.398 49.3566 705.407 48.2229C702.79 46.5731 702.407 44.4734 704.469 41.8264C705.924 40.0041 708.309 38.5569 711.616 37.6345C714.598 36.6964 717.79 36.6547 720.795 37.5145C721.237 37.657 721.62 37.8295 722.047 38.0019C722.093 37.9436 722.144 37.8885 722.197 37.837C722.577 37.4031 722.983 36.9924 723.412 36.6072C726.178 34.3836 729.572 33.0852 733.116 32.8952C737.158 32.5653 739.865 33.4277 741.425 35.0924C741.707 35.4421 741.958 35.816 742.175 36.2097V36.2097Z" fill="black"/>
<path d="M766.511 319.971L630.747 351.139C626.081 352.21 623.166 356.861 624.238 361.528L630.867 390.404C631.939 395.07 636.59 397.985 641.256 396.913L777.02 365.745C781.687 364.674 784.601 360.023 783.53 355.357L776.9 326.48C775.829 321.814 771.177 318.9 766.511 319.971Z" fill="white" stroke="black" stroke-width="5" stroke-miterlimit="10"/>
<path d="M627.903 354.018L704.687 363.497L770.476 321.293" stroke="black" stroke-width="5" stroke-linecap="round" stroke-linejoin="round"/>
<path d="M722.992 353.238L723.194 354.123C723.191 354.171 723.191 354.218 723.194 354.266C723.191 354.902 723.039 355.528 722.752 356.095C721.861 357.773 720.657 359.265 719.205 360.49C715.4 363.814 711.258 366.732 706.846 369.196C706.433 369.434 705.957 369.542 705.481 369.503C701.164 369.227 696.876 368.608 692.658 367.651C690.411 367.19 688.25 366.381 686.253 365.252C683.636 363.602 683.254 361.502 685.316 358.855C686.816 357.033 689.156 355.578 692.47 354.663C695.452 353.725 698.644 353.683 701.649 354.543C702.084 354.686 702.467 354.858 702.901 355.023L703.051 354.858C703.431 354.429 703.834 354.021 704.259 353.636C707.021 351.4 710.415 350.089 713.963 349.886C718.012 349.556 720.674 350.419 722.272 352.084C722.548 352.445 722.789 352.831 722.992 353.238V353.238Z" fill="black"/>
<path d="M406.08 465.943L541.844 497.111C546.51 498.182 551.161 495.268 552.233 490.601L558.863 461.725C559.934 457.059 557.019 452.407 552.353 451.336L416.589 420.168C411.923 419.097 407.272 422.011 406.2 426.678L399.57 455.554C398.499 460.22 401.414 464.872 406.08 465.943Z" fill="white" stroke="black" stroke-width="5" stroke-miterlimit="10"/>
<path d="M555.169 454.202L478.393 463.681L412.596 421.478" stroke="black" stroke-width="5" stroke-linecap="round" stroke-linejoin="round"/>
<path d="M460.073 453.422L459.87 454.307C459.889 454.353 459.901 454.401 459.908 454.45C459.912 455.085 460.061 455.711 460.343 456.28C461.234 457.957 462.438 459.449 463.89 460.674C467.697 463.998 471.842 466.916 476.256 469.38C476.669 469.619 477.145 469.727 477.62 469.687C481.938 469.414 486.226 468.795 490.444 467.835C492.689 467.376 494.848 466.566 496.841 465.436C499.458 463.786 499.84 461.686 497.778 459.039C496.323 457.217 493.939 455.762 490.631 454.847C487.65 453.909 484.458 453.867 481.453 454.727C481.018 454.87 480.628 455.042 480.2 455.207L480.05 455.042C479.671 454.613 479.268 454.205 478.843 453.82C476.068 451.577 472.657 450.265 469.094 450.071C465.052 449.741 462.382 450.603 460.792 452.268C460.516 452.629 460.275 453.016 460.073 453.422Z" fill="black"/>
<path d="M332.465 370.302C329.968 374.029 316.525 368.976 307.767 365.683C299.252 362.482 285.013 357.127 285.617 352.503C286.22 347.879 301.305 343.611 313.68 348.191C326.348 352.874 335.035 366.466 332.465 370.302Z" fill="black"/>
<path d="M263.77 520.093C264.813 520.092 265.819 520.484 266.589 521.191C267.359 521.898 267.837 522.869 267.929 523.912L273.883 586.612H274.193C276.799 586.389 302.288 584.562 316.953 603.285C320.219 607.486 322.651 612.277 324.118 617.398C324.293 618.019 324.324 618.673 324.207 619.307C324.09 619.942 323.829 620.541 323.444 621.058C323.058 621.575 322.559 621.996 321.986 622.287C321.412 622.579 320.779 622.733 320.136 622.739H273.908H236.062C235.513 622.739 234.97 622.631 234.463 622.42C233.956 622.209 233.496 621.9 233.108 621.511C232.72 621.121 232.412 620.658 232.202 620.149C231.992 619.64 231.884 619.095 231.884 618.544V524.288C231.884 523.737 231.992 523.192 232.202 522.683C232.412 522.174 232.72 521.711 233.108 521.322C233.496 520.932 233.956 520.623 234.463 520.412C234.97 520.201 235.513 520.093 236.062 520.093H263.77Z" fill="white" stroke="black" stroke-width="5" stroke-miterlimit="10"/>
<path d="M278.074 543.711L276.431 525.065C276.283 523.965 275.734 522.96 274.891 522.243C274.048 521.526 272.971 521.148 271.866 521.181H228.644C227.471 521.142 226.33 521.57 225.471 522.373C224.612 523.176 224.104 524.288 224.06 525.466V551.955L278.074 543.711Z" fill="black"/>
<path d="M173.565 520.093C172.521 520.092 171.515 520.484 170.745 521.191C169.975 521.898 169.497 522.869 169.405 523.912L163.452 586.612H163.141C160.535 586.389 135.047 584.562 120.381 603.285C117.113 607.484 114.681 612.276 113.216 617.398C113.04 618.023 113.01 618.68 113.129 619.318C113.249 619.956 113.514 620.558 113.904 621.076C114.295 621.594 114.799 622.013 115.378 622.302C115.958 622.591 116.596 622.74 117.243 622.739H163.471H201.317C202.425 622.739 203.487 622.297 204.271 621.511C205.055 620.724 205.495 619.657 205.495 618.544V524.288C205.495 523.175 205.055 522.108 204.271 521.322C203.487 520.535 202.425 520.093 201.317 520.093H173.565Z" fill="white" stroke="black" stroke-width="5" stroke-miterlimit="10"/>
<path d="M159.261 543.711L160.903 525.065C161.051 523.965 161.6 522.96 162.443 522.243C163.286 521.526 164.364 521.148 165.468 521.181H208.691C209.864 521.142 211.005 521.57 211.864 522.373C212.723 523.176 213.23 524.288 213.275 525.466V551.955L159.261 543.711Z" fill="black"/>
<path d="M218.608 542.864C280.756 542.864 331.138 492.279 331.138 429.879C331.138 367.479 280.756 316.894 218.608 316.894C156.459 316.894 106.078 367.479 106.078 429.879C106.078 492.279 156.459 542.864 218.608 542.864Z" fill="white" stroke="black" stroke-width="5" stroke-miterlimit="10"/>
<path d="M218.164 315.666C229.204 315.659 240.184 317.283 250.754 320.485C239.728 328.691 222.444 336.024 202.332 340.22C180.882 344.676 160.961 344.561 147.487 340.754C167.48 324.494 192.435 315.636 218.164 315.666V315.666Z" fill="black"/>
<path d="M225.189 287.12C238.453 281.543 269.324 269.498 275.329 278.303C275.689 278.833 275.947 279.427 276.089 280.053C279.501 293.027 241.629 321.98 200.607 340.302C185.574 347.018 145.933 364.722 135.003 351.761C133.982 350.545 133.189 349.036 132.466 345.923C128.478 328.786 134.552 297.127 160.142 282.358C179.842 270.963 205.445 272.885 225.189 287.12Z" fill="#FBFBFB" stroke="black" stroke-width="5" stroke-miterlimit="10"/>
<path d="M155.197 345.815C155.425 344.656 152.768 343.09 150.93 342.358C150.422 342.154 148.21 341.314 143.993 341.499C141.768 341.609 139.561 341.961 137.412 342.549C135.611 343.033 134.876 343.396 131.636 344.58C129.1 345.522 126.982 346.235 125.631 346.687L137.412 342.549C135.024 341.279 132.431 340.443 129.753 340.079C112.634 337.819 99.1538 356.815 98.0125 358.464C74.052 364.035 57.3641 384.928 57.4338 407.4C57.4845 433.711 80.4686 457.234 109.768 457.387C107.306 447.794 106.068 437.926 106.084 428.02C94.4872 426.556 85.6614 417 85.1098 405.834C84.4758 393.694 93.8279 382.623 106.521 381.217C144.291 379.555 153.44 375.659 153.878 372.119C153.919 371.42 153.815 370.72 153.574 370.063C153.333 369.406 152.959 368.806 152.477 368.3C151.323 367.141 149.427 366.613 139.048 367.358C135.491 367.612 132.948 367.873 132.314 366.651C131.978 366.014 132.314 365.168 132.625 364.525C136.507 361.771 140.611 359.345 144.894 357.274C149.389 355.109 153.136 353.817 153.301 351.423C153.409 349.966 152.153 348.673 151.088 347.82C151.088 347.82 154.937 347.126 155.197 345.815ZM126.462 357.115C134.372 353.265 142.615 350.145 151.088 347.795C142.628 350.187 134.388 353.307 126.462 357.121V357.115Z" fill="white" stroke="black" stroke-width="5" stroke-miterlimit="10"/>
<path d="M83.6387 450.983C86.3184 452.958 89.3018 454.481 92.4708 455.49C97.6898 457.121 103.245 457.34 108.576 456.126C108.043 446.56 107.508 436.99 106.971 427.415C103.409 427.681 99.844 426.93 96.6873 425.251L83.6387 450.983Z" fill="black"/>
<path d="M258.21 405.02C259.175 406.389 260.44 407.518 261.907 408.32C263.374 409.122 265.005 409.576 266.674 409.648C271.861 409.896 276.464 406.197 278.131 402.219C281.454 394.312 273.433 384.782 268.437 380.663C264.876 377.766 260.693 375.739 256.219 374.743C257.383 380.283 257.81 385.954 257.487 391.606C257.1 397.864 255.889 401.461 258.21 405.02Z" fill="white" stroke="black" stroke-width="5" stroke-miterlimit="10"/>
<path d="M289.791 435.914C290.378 436.747 291.147 437.433 292.04 437.921C292.932 438.409 293.924 438.685 294.94 438.728C296.415 438.743 297.863 438.323 299.103 437.52C300.343 436.716 301.32 435.565 301.914 434.208C303.937 429.402 299.054 423.602 296.017 421.094C293.849 419.332 291.303 418.098 288.58 417.491C289.288 420.862 289.546 424.313 289.347 427.753C289.119 431.579 288.383 433.769 289.791 435.914Z" fill="white" stroke="black" stroke-width="5" stroke-miterlimit="10"/>
<path d="M238.471 425.296C239.058 426.128 239.826 426.814 240.717 427.301C241.609 427.789 242.599 428.065 243.613 428.109C246.936 428.269 249.656 425.563 250.588 423.59C252.712 419.082 248.781 411.405 240.247 405.128C239.207 409.858 238.509 413.932 238.027 417.109C237.368 421.463 237.254 423.481 238.471 425.296Z" fill="white" stroke="black" stroke-width="5" stroke-miterlimit="10"/>
<path d="M1318 619.495C1318 611.829 1281.59 605.051 1225.84 600.941C1226.25 600.189 1226.47 599.381 1226.48 598.565C1226.48 586.031 1173.77 575.868 1108.76 575.868C1043.75 575.868 991.042 586.031 991.042 598.565C991.043 599.002 991.108 599.438 991.236 599.864C926.511 603.797 883 611.114 883 619.495C883 625.391 904.515 630.752 939.788 634.787C935.896 637.174 933.77 639.743 933.77 642.422C933.77 654.958 980.169 665.121 1037.42 665.121C1066.4 665.121 1092.6 662.514 1111.4 658.312C1120.3 667.864 1149.43 674.868 1183.99 674.868C1225.63 674.868 1259.38 664.706 1259.38 652.169C1259.38 646.301 1251.98 640.953 1239.83 636.923C1287.6 632.759 1318 626.496 1318 619.495Z" fill="black"/>
<path d="M1071.07 500.966C1071.3 502.139 1068.59 503.73 1066.73 504.472C1066.21 504.678 1063.97 505.528 1059.69 505.341C1057.43 505.23 1055.19 504.874 1053 504.278C1051.17 503.788 1050.43 503.421 1047.14 502.223C1044.56 501.269 1042.41 500.547 1041.04 500.09L1053 504.278C1050.58 505.561 1047.94 506.407 1045.22 506.779C1027.84 509.066 1014.14 489.837 1012.98 488.168C988.648 482.53 971.698 461.374 971.769 438.633C971.814 411.999 995.165 388.188 1024.92 388.034C1022.42 397.745 1021.17 407.733 1021.18 417.76C1009.4 419.242 1000.44 428.915 999.879 440.211C999.235 452.507 1008.73 463.713 1021.63 465.137C1059.99 466.819 1069.28 470.763 1069.73 474.346C1069.77 475.053 1069.66 475.762 1069.42 476.427C1069.17 477.092 1068.79 477.7 1068.3 478.212C1067.13 479.385 1065.21 479.92 1054.66 479.166C1051.05 478.908 1048.47 478.644 1047.83 479.881C1047.48 480.525 1047.83 481.382 1048.14 482.033C1052.08 484.835 1056.25 487.301 1060.6 489.405C1065.17 491.596 1068.97 492.904 1069.14 495.327C1069.25 496.803 1067.98 498.111 1066.89 498.975C1066.89 498.975 1070.8 499.651 1071.07 500.966ZM1041.87 489.534C1049.91 493.431 1058.29 496.589 1066.89 498.968C1058.3 496.549 1049.93 493.393 1041.87 489.534V489.534Z" fill="white" stroke="black" stroke-width="5" stroke-miterlimit="10"/>
<path d="M1142.01 522.116C1143.07 522.115 1144.09 522.511 1144.87 523.227C1145.66 523.943 1146.14 524.926 1146.23 525.982L1152.28 589.45H1152.6C1155.24 589.224 1181.13 587.375 1196.03 606.327C1199.35 610.579 1201.82 615.429 1203.31 620.613C1203.48 621.242 1203.52 621.903 1203.4 622.546C1203.28 623.188 1203.01 623.795 1202.62 624.318C1202.23 624.841 1201.72 625.267 1201.14 625.562C1200.56 625.857 1199.91 626.014 1199.26 626.02H1152.31H1113.87C1113.31 626.02 1112.76 625.91 1112.24 625.697C1111.73 625.483 1111.26 625.17 1110.87 624.776C1110.47 624.382 1110.16 623.914 1109.95 623.398C1109.73 622.883 1109.62 622.331 1109.62 621.773V526.362C1109.62 525.805 1109.73 525.252 1109.95 524.737C1110.16 524.222 1110.47 523.754 1110.87 523.36C1111.26 522.965 1111.73 522.652 1112.24 522.439C1112.76 522.226 1113.31 522.116 1113.87 522.116H1142.01Z" fill="white" stroke="black" stroke-width="5" stroke-miterlimit="10"/>
<path d="M1156.54 546.023L1154.87 527.149C1154.72 526.036 1154.16 525.018 1153.31 524.293C1152.45 523.567 1151.36 523.184 1150.23 523.218H1106.33C1105.14 523.178 1103.98 523.612 1103.11 524.424C1102.24 525.237 1101.72 526.363 1101.68 527.555V554.369L1156.54 546.023Z" fill="black"/>
<path d="M1050.39 522.116C1049.33 522.115 1048.31 522.511 1047.52 523.227C1046.74 523.943 1046.26 524.926 1046.16 525.982L1040.12 589.45H1039.8C1037.15 589.224 1011.26 587.375 996.369 606.327C993.05 610.578 990.579 615.428 989.092 620.613C988.913 621.246 988.882 621.911 989.004 622.557C989.125 623.203 989.394 623.812 989.791 624.336C990.187 624.86 990.7 625.285 991.288 625.577C991.876 625.869 992.525 626.021 993.181 626.02H1040.14H1078.58C1079.7 626.02 1080.78 625.572 1081.58 624.776C1082.37 623.98 1082.82 622.899 1082.82 621.773V526.362C1082.82 525.236 1082.37 524.156 1081.58 523.36C1080.78 522.563 1079.7 522.116 1078.58 522.116H1050.39Z" fill="white" stroke="black" stroke-width="5" stroke-miterlimit="10"/>
<path d="M1035.86 546.023L1037.53 527.149C1037.68 526.036 1038.24 525.018 1039.09 524.293C1039.95 523.567 1041.04 523.184 1042.17 523.218H1086.07C1087.26 523.178 1088.42 523.612 1089.29 524.424C1090.16 525.237 1090.68 526.363 1090.72 527.555V554.369L1035.86 546.023Z" fill="black"/>
<path d="M965.426 534.09H965.425C963.271 534.091 961.154 533.529 959.284 532.458C957.413 531.388 955.855 529.848 954.763 527.99C953.67 526.131 953.082 524.019 953.057 521.863C953.031 519.707 953.569 517.582 954.617 515.698L954.617 515.698L1083.42 283.776C1084.49 281.848 1086.05 280.242 1087.95 279.124C1089.85 278.006 1092.02 277.417 1094.22 277.417C1096.42 277.417 1098.59 278.006 1100.49 279.124C1102.38 280.242 1103.95 281.848 1105.02 283.776L1233.82 515.698L1233.82 515.698C1234.87 517.582 1235.41 519.707 1235.38 521.863C1235.36 524.019 1234.77 526.131 1233.68 527.99C1232.58 529.848 1231.02 531.388 1229.15 532.458C1227.28 533.529 1225.17 534.091 1223.01 534.09H1223.01H965.426Z" fill="white" stroke="black" stroke-width="3"/>
<path d="M1094.23 277.538C1096.41 277.522 1098.57 278.1 1100.45 279.211C1102.34 280.322 1103.89 281.924 1104.94 283.846L1233.74 515.762C1234.78 517.628 1235.31 519.734 1235.29 521.871C1235.27 524.008 1234.68 526.102 1233.6 527.944C1232.52 529.786 1230.97 531.312 1229.12 532.371C1227.26 533.43 1225.16 533.984 1223.03 533.979H965.426C963.291 533.984 961.192 533.429 959.337 532.371C957.483 531.312 955.938 529.786 954.855 527.945C953.772 526.104 953.19 524.012 953.165 521.875C953.141 519.739 953.676 517.634 954.716 515.768L1083.52 283.846C1084.56 281.924 1086.11 280.322 1088 279.211C1089.89 278.1 1092.04 277.522 1094.23 277.538V277.538ZM1094.23 274.316C1091.46 274.3 1088.75 275.032 1086.37 276.434C1083.99 277.836 1082.03 279.856 1080.7 282.281L951.902 514.203C950.589 516.558 949.914 519.217 949.945 521.914C949.976 524.612 950.712 527.254 952.079 529.579C953.446 531.904 955.397 533.83 957.739 535.168C960.08 536.505 962.73 537.206 965.426 537.201H1223.03C1225.72 537.206 1228.37 536.505 1230.71 535.168C1233.05 533.83 1235.01 531.904 1236.37 529.579C1237.74 527.254 1238.48 524.612 1238.51 521.914C1238.54 519.217 1237.86 516.558 1236.55 514.203L1107.75 282.281C1106.42 279.856 1104.46 277.836 1102.08 276.434C1099.7 275.032 1096.99 274.3 1094.23 274.316V274.316Z" fill="black"/>
<path d="M1131.58 334.368C1131.35 333.195 1134.05 331.61 1135.92 330.869C1136.43 330.663 1138.68 329.812 1142.96 329.999C1145.22 330.103 1147.46 330.459 1149.64 331.062C1151.47 331.552 1152.22 331.919 1155.52 333.118C1158.09 334.071 1160.24 334.793 1161.61 335.251L1149.64 331.062C1152.06 329.777 1154.69 328.93 1157.4 328.562C1174.79 326.268 1188.48 345.503 1189.64 347.172C1213.57 352.16 1230.73 373.084 1230.86 396.701C1230.99 418.515 1216.59 438.369 1195.23 445.38L1181.44 417.58C1193.22 416.092 1202.19 406.425 1202.75 395.123C1203.39 382.834 1193.88 371.627 1180.99 370.203C1142.64 368.521 1133.34 364.578 1132.89 360.995C1132.85 360.287 1132.96 359.579 1133.21 358.914C1133.45 358.249 1133.83 357.641 1134.32 357.128C1135.49 355.949 1137.42 355.414 1147.96 356.175C1151.57 356.432 1154.16 356.697 1154.8 355.459C1155.14 354.815 1154.8 353.958 1154.48 353.307C1150.53 350.504 1146.36 348.036 1142 345.929C1137.43 343.738 1133.63 342.423 1133.46 340.006C1133.35 338.531 1134.62 337.223 1135.71 336.359C1135.71 336.359 1131.84 335.689 1131.58 334.368ZM1160.77 345.806C1152.74 341.907 1144.36 338.75 1135.76 336.372C1144.35 338.791 1152.72 341.948 1160.77 345.806Z" fill="white" stroke="black" stroke-width="5" stroke-miterlimit="10"/>
<path d="M1204.25 440.811L1195.28 445.38C1190.37 435.903 1185.47 426.426 1180.55 416.949C1184.17 417.214 1187.79 416.455 1191 414.758L1204.25 440.811Z" fill="black"/>
<path d="M1136.36 405.633C1137.34 407.019 1138.63 408.161 1140.12 408.973C1141.61 409.785 1143.27 410.245 1144.96 410.318C1150.23 410.569 1154.9 406.825 1156.6 402.797C1159.97 394.794 1151.83 385.147 1146.75 380.978C1143.13 378.045 1138.89 375.994 1134.34 374.985C1135.52 380.593 1135.96 386.333 1135.63 392.055C1135.24 398.39 1134.01 402.031 1136.36 405.633Z" fill="white" stroke="black" stroke-width="5" stroke-miterlimit="10"/>
<path d="M1168.44 436.906C1169.04 437.749 1169.82 438.444 1170.72 438.938C1171.63 439.431 1172.64 439.711 1173.67 439.754C1175.17 439.77 1176.64 439.345 1177.9 438.531C1179.16 437.718 1180.15 436.552 1180.75 435.179C1182.81 430.314 1177.85 424.443 1174.76 421.904C1172.56 420.12 1169.98 418.872 1167.21 418.257C1167.93 421.67 1168.19 425.163 1167.99 428.645C1167.76 432.518 1167.01 434.734 1168.44 436.906Z" fill="white" stroke="black" stroke-width="5" stroke-miterlimit="10"/>
<path d="M1116.31 426.157C1116.91 426.999 1117.69 427.694 1118.6 428.187C1119.5 428.681 1120.51 428.961 1121.54 429.005C1124.91 429.166 1127.68 426.428 1128.62 424.43C1130.78 419.868 1126.79 412.096 1118.12 405.742C1117.06 410.53 1116.35 414.654 1115.86 417.87C1115.19 422.278 1115.08 424.32 1116.31 426.157Z" fill="white" stroke="black" stroke-width="5" stroke-miterlimit="10"/>
</svg>
