<svg width="1770" height="721" viewBox="0 0 1770 721" fill="none" xmlns="http://www.w3.org/2000/svg">
<rect x="5" y="5" width="410.952" height="609.686" rx="15" fill="#E84393" stroke="black" stroke-width="10"/>
<path d="M301.026 409.911C318.084 404.478 336.181 406.717 348.088 418.668C361.211 431.803 361.081 448.934 360.951 452.212C357.814 453.094 354.997 454.858 352.834 457.294C351.841 458.432 348.127 462.688 348.898 468.755C349.175 470.653 349.823 472.479 350.807 474.125C351.791 475.772 353.09 477.209 354.63 478.352C356.77 504.004 380.424 493.069 380.424 493.069C380.875 493.344 386.194 496.485 391.888 493.933C394.118 492.874 395.983 491.174 397.243 489.051C398.504 486.928 399.103 484.478 398.965 482.012C399.614 481.967 406.92 481.309 410.428 475.059C413.233 470.1 411.72 465.065 411.338 463.804C409.695 458.325 405.484 455.544 403.535 454.26C400.294 452.141 396.549 450.92 392.682 450.722C392.682 446.413 392.178 414.206 365.681 392.879C344.473 375.817 314.782 372.287 288.882 383.603C292.833 391.764 297.059 401.728 301.026 409.911Z" fill="white" stroke="black" stroke-width="5" stroke-linecap="round" stroke-linejoin="round"/>
<path d="M334.715 379.622C322.597 376.074 309.701 376.189 297.648 379.95V403.798C298.367 405.471 299.085 407.114 299.796 408.681C311.932 404.539 324.626 405.028 334.715 411.118V379.622Z" fill="black"/>
<path d="M380.142 490.616C380.058 490.043 376.321 484.504 380.57 479.919L380.142 490.616Z" fill="white"/>
<path d="M380.142 490.616C380.058 490.043 376.321 484.504 380.57 479.919" stroke="black" stroke-width="5" stroke-linecap="round" stroke-linejoin="round"/>
<path d="M356.512 477.069C356.996 474.571 358.122 472.242 359.78 470.312C361.438 468.381 363.569 466.915 365.965 466.058" fill="white"/>
<path d="M356.512 477.069C356.996 474.571 358.122 472.242 359.78 470.312C361.438 468.381 363.569 466.915 365.965 466.058" stroke="black" stroke-width="5" stroke-linecap="round" stroke-linejoin="round"/>
<path d="M362.549 489.6C362.991 486.426 364.315 483.44 366.37 480.981C367.659 479.445 369.212 478.151 370.956 477.16" fill="white"/>
<path d="M362.549 489.6C362.991 486.426 364.315 483.44 366.37 480.981C367.659 479.445 369.212 478.151 370.956 477.16" stroke="black" stroke-width="5" stroke-linecap="round" stroke-linejoin="round"/>
<path d="M113.287 421.189C98.4757 426.974 81.8839 423.879 71.0009 413.327C57.466 400.199 59.4913 382.059 59.7512 379.981C64.1194 382.097 69.0728 382.681 73.8134 381.639C79.8204 380.202 86.5458 375.572 85.9344 372.263C85.323 368.955 77.3442 367.052 66.6447 367.029C83.4583 357.7 93.7068 346.964 91.6128 339.911C91.2971 338.91 90.7767 337.986 90.0847 337.196C89.3927 336.407 88.5441 335.77 87.5928 335.326C81.1349 332.354 70.015 339.277 59.8276 352.901C68.0356 336.656 70.3896 323.926 65.5824 320.09C63.0451 318.073 59.1856 319.066 58.1004 319.326C48.9905 321.687 42.6243 334.348 41.562 351.021C39.6131 336.587 32.261 327.372 25.2987 327.334C23.725 327.332 22.177 327.732 20.8018 328.497C19.4267 329.262 18.2701 330.366 17.4422 331.705C14.0795 337.726 19.5897 349.157 32.4674 359.297C24.565 352.076 16.6627 349.363 12.5969 352.137C11.3245 353.074 10.4428 354.448 10.1207 355.996C8.89787 361.948 16.9989 369.841 29.6855 376.107C29.4562 378.346 26.4222 414.068 55.181 436.471C64.8645 443.951 76.3902 448.675 88.5386 450.142C100.687 451.61 113.006 449.766 124.193 444.808C120.654 437.495 116.856 428.548 113.287 421.189Z" fill="white" stroke="black" stroke-width="5" stroke-linecap="square" stroke-linejoin="round"/>
<path d="M264.039 559.16L249.047 555.381L239.905 591.635L254.897 595.414L264.039 559.16Z" fill="black"/>
<path d="M211.234 516.245C210.256 518.178 202.063 534.996 210.042 550.079C212.709 554.896 216.445 559.036 220.963 562.183C225.625 565.568 231.082 567.692 236.806 568.349C248.537 569.556 257.296 563.619 259.734 561.808C254.358 569.348 248.981 576.884 243.6 584.418C243.6 584.418 220.803 579.971 217.165 608.19L264.632 620.163L282.921 547.573C283.425 545.642 283.425 543.613 282.921 541.682C281.607 536.814 278.213 533.086 274.201 532.085C268.179 530.556 260.444 535.187 258.396 543.34C257.555 546.648 256.57 546.748 255.156 547.795C249.913 551.653 239.106 549.147 233.673 542.759C228.239 536.371 228.033 525.72 233.803 516.993L211.234 516.245Z" fill="white" stroke="black" stroke-width="5" stroke-linecap="round" stroke-linejoin="round"/>
<path d="M243.623 584.395C243.623 584.395 250.165 584.884 252.748 590.752L243.623 584.395Z" fill="white"/>
<path d="M243.623 584.395C243.623 584.395 250.165 584.884 252.748 590.752" stroke="black" stroke-width="5" stroke-linecap="round" stroke-linejoin="round"/>
<path d="M178.393 521.654L161.082 514.67L131.276 558.5C122.778 550.423 103.695 542.339 91.459 547.726C89.3229 548.92 87.4475 550.53 85.9434 552.461C84.4392 554.391 83.3366 556.603 82.7006 558.966C81.7506 562.855 82.1244 566.95 83.7629 570.603L149.68 606.738C151.832 605.188 153.599 603.164 154.846 600.824C159.248 592.48 154.777 583.494 154.196 582.37C162.262 562.137 170.327 541.898 178.393 521.654Z" fill="white" stroke="black" stroke-width="5" stroke-linecap="round" stroke-linejoin="round"/>
<path d="M205.249 530.045C269.883 530.045 322.279 477.658 322.279 413.037C322.279 348.415 269.883 296.029 205.249 296.029C140.615 296.029 88.2188 348.415 88.2188 413.037C88.2188 477.658 140.615 530.045 205.249 530.045Z" fill="white" stroke="black" stroke-width="5" stroke-miterlimit="10"/>
<path d="M118.055 422.29C139.539 422.29 156.955 404.877 156.955 383.397C156.955 361.917 139.539 344.504 118.055 344.504C96.5706 344.504 79.1543 361.917 79.1543 383.397C79.1543 404.877 96.5706 422.29 118.055 422.29Z" fill="white" stroke="black" stroke-width="5" stroke-linejoin="round"/>
<path d="M102.296 397.563C110.89 397.563 117.857 388.563 117.857 377.46C117.857 366.357 110.89 357.356 102.296 357.356C93.7028 357.356 86.7363 366.357 86.7363 377.46C86.7363 388.563 93.7028 397.563 102.296 397.563Z" fill="black"/>
<path d="M198.502 422.29C219.986 422.29 237.402 404.877 237.402 383.397C237.402 361.917 219.986 344.504 198.502 344.504C177.018 344.504 159.602 361.917 159.602 383.397C159.602 404.877 177.018 422.29 198.502 422.29Z" fill="white" stroke="black" stroke-width="5" stroke-linejoin="round"/>
<path d="M182.743 397.563C191.336 397.563 198.303 388.563 198.303 377.46C198.303 366.357 191.336 357.356 182.743 357.356C174.149 357.356 167.183 366.357 167.183 377.46C167.183 388.563 174.149 397.563 182.743 397.563Z" fill="black"/>
<path d="M150.04 434.485C163.88 434.485 175.1 427.106 175.1 418.003C175.1 408.901 163.88 401.521 150.04 401.521C136.2 401.521 124.98 408.901 124.98 418.003C124.98 427.106 136.2 434.485 150.04 434.485Z" fill="black"/>
<path d="M138.499 336.625C137.436 341.157 122.511 341.21 112.782 341.21C103.328 341.21 87.5155 341.294 86.4074 336.625C85.2992 331.957 98.4137 322.237 112.124 322.107C126.148 322 139.592 331.964 138.499 336.625Z" fill="black"/>
<path d="M219.336 333.622C218.273 338.153 203.347 338.207 193.626 338.207C184.165 338.207 168.352 338.291 167.244 333.622C166.136 328.954 179.251 319.234 192.961 319.104C206.985 319.005 220.428 328.969 219.336 333.622Z" fill="black"/>
<path d="M167.596 454.894C194.344 462.726 220.39 458.21 234.086 442.073C238.292 437.052 241.298 431.138 242.874 424.781" stroke="black" stroke-width="5" stroke-linecap="round" stroke-linejoin="round"/>
<path d="M233.451 426.905C236.273 425.052 239.702 424.361 243.022 424.977C246.342 425.592 249.295 427.465 251.266 430.206" stroke="black" stroke-width="5" stroke-linecap="round" stroke-linejoin="round"/>
<path d="M205.044 296.036C193.565 296.025 182.146 297.706 171.157 301.026C182.621 309.515 200.596 317.072 221.506 321.443C243.822 326.028 264.541 325.936 278.542 321.993C257.749 305.162 231.797 295.997 205.044 296.036Z" fill="black"/>
<path d="M202.629 266.473C188.872 260.696 156.774 248.226 150.484 257.303C150.121 257.856 149.862 258.469 149.72 259.114C146.174 272.555 185.555 302.531 228.216 321.504C243.852 328.457 285.076 346.796 296.441 333.347C297.503 332.094 298.328 330.536 299.085 327.311C303.235 309.561 296.922 276.773 270.311 261.483C249.791 249.739 223.164 251.725 202.629 266.473Z" fill="#FBFBFB" stroke="black" stroke-width="5" stroke-linejoin="round"/>
<rect x="111.987" y="63.9678" width="197.976" height="65.9666" rx="10" fill="black"/>
<rect x="450.948" y="5" width="410.952" height="609.686" rx="15" fill="#0984E3" stroke="black" stroke-width="10"/>
<path d="M630.52 501.536C654.624 490.227 682.489 496.952 696.535 515.535C713.563 538.053 707.839 574.677 680.181 592.87L658.453 574.272C676.978 564.873 681.205 543.088 672.653 531.673C665.942 522.717 650.803 519.401 637.146 525.865L630.52 501.536Z" fill="white" stroke="black" stroke-width="5" stroke-miterlimit="10"/>
<path d="M657.33 523.023L649.802 496.279C642.986 496.872 636.329 498.665 630.138 501.574L636.771 525.903C643.152 522.809 650.344 521.801 657.33 523.023Z" fill="black"/>
<path d="M463.576 501.536C439.464 490.227 411.607 496.952 397.553 515.535C380.533 538.053 386.249 574.677 413.908 592.87L435.643 574.272C417.117 564.873 412.883 543.088 421.435 531.673C428.146 522.717 443.285 519.401 456.943 525.865C459.149 517.761 461.36 509.651 463.576 501.536Z" fill="white" stroke="black" stroke-width="5" stroke-miterlimit="10"/>
<path d="M434.45 523.023L442.628 496.195C449.978 496.782 457.182 498.573 463.95 501.498C461.551 509.618 459.153 517.74 456.759 525.865C449.757 522.771 442.005 521.783 434.45 523.023Z" fill="black"/>
<path d="M591.198 611.659C592.281 611.658 593.325 612.061 594.127 612.789C594.928 613.516 595.429 614.517 595.532 615.594L601.715 680.544H602.043C604.756 680.307 631.26 678.419 646.507 697.805C649.902 702.158 652.434 707.119 653.966 712.422C654.156 713.071 654.192 713.754 654.072 714.419C653.952 715.084 653.679 715.712 653.274 716.253C652.869 716.794 652.344 717.234 651.74 717.537C651.136 717.84 650.469 717.999 649.794 718H601.715H562.363C561.792 718 561.227 717.888 560.699 717.669C560.172 717.451 559.692 717.13 559.288 716.727C558.885 716.323 558.564 715.844 558.346 715.316C558.127 714.789 558.015 714.223 558.015 713.652V616.038C558.015 615.467 558.127 614.901 558.346 614.374C558.564 613.846 558.885 613.367 559.288 612.963C559.692 612.559 560.172 612.239 560.699 612.021C561.227 611.802 561.792 611.69 562.363 611.69L591.198 611.659Z" fill="white" stroke="black" stroke-width="5" stroke-linejoin="round"/>
<path d="M606.08 636.149L604.375 616.84C604.218 615.702 603.645 614.662 602.768 613.921C601.891 613.179 600.77 612.787 599.622 612.821H554.676C554.071 612.796 553.466 612.892 552.898 613.102C552.33 613.313 551.809 613.633 551.366 614.046C550.922 614.459 550.565 614.956 550.315 615.507C550.064 616.059 549.926 616.655 549.907 617.26V644.692L606.08 636.149Z" fill="black"/>
<path d="M601.715 680.559C601.715 680.559 591.306 681.606 587.057 685.595" stroke="black" stroke-width="5" stroke-linecap="round" stroke-linejoin="round"/>
<path d="M497.394 611.659C496.312 611.658 495.269 612.061 494.469 612.789C493.669 613.517 493.169 614.517 493.068 615.594L486.878 680.544H486.549C483.844 680.307 457.332 678.419 442.085 697.805C438.69 702.156 436.16 707.118 434.634 712.422C434.443 713.07 434.405 713.754 434.524 714.419C434.643 715.084 434.916 715.712 435.32 716.253C435.724 716.795 436.249 717.234 436.853 717.538C437.457 717.841 438.123 717.999 438.799 718H486.878H526.229C526.801 718.001 527.366 717.889 527.895 717.671C528.423 717.453 528.902 717.133 529.306 716.729C529.71 716.325 530.031 715.845 530.249 715.317C530.467 714.789 530.579 714.224 530.578 713.652V616.038C530.578 614.884 530.12 613.779 529.304 612.963C528.489 612.148 527.383 611.69 526.229 611.69L497.394 611.659Z" fill="white" stroke="black" stroke-width="5" stroke-linejoin="round"/>
<path d="M482.514 636.149L484.226 616.84C484.38 615.702 484.95 614.661 485.827 613.919C486.703 613.177 487.824 612.786 488.972 612.821H533.925C534.53 612.796 535.135 612.892 535.703 613.102C536.271 613.313 536.792 613.633 537.235 614.046C537.679 614.459 538.036 614.956 538.286 615.507C538.537 616.059 538.675 616.655 538.694 617.26V644.692L482.514 636.149Z" fill="black"/>
<path d="M486.878 680.559C486.878 680.559 497.287 681.606 501.536 685.595" stroke="black" stroke-width="5" stroke-linecap="round" stroke-linejoin="round"/>
<path d="M531.274 366.067L403.681 595.613C402.123 598.406 401.323 601.559 401.36 604.757C401.397 607.955 402.27 611.088 403.892 613.845C405.514 616.602 407.83 618.886 410.608 620.472C413.387 622.058 416.532 622.889 419.731 622.884H674.915C678.114 622.889 681.259 622.058 684.038 620.472C686.816 618.886 689.132 616.602 690.754 613.845C692.376 611.088 693.249 607.955 693.286 604.757C693.323 601.559 692.523 598.406 690.965 595.613L563.334 366.052C561.744 363.195 559.418 360.816 556.599 359.16C553.78 357.504 550.569 356.632 547.299 356.633C544.03 356.635 540.82 357.51 538.002 359.169C535.184 360.828 532.861 363.209 531.274 366.067Z" fill="white" stroke="black" stroke-width="5" stroke-linejoin="round"/>
<path d="M486.572 495.645C510.774 495.645 530.394 484.472 530.394 470.689C530.394 456.906 510.774 445.733 486.572 445.733C462.37 445.733 442.75 456.906 442.75 470.689C442.75 484.472 462.37 495.645 486.572 495.645Z" fill="white" stroke="black" stroke-width="5" stroke-miterlimit="10"/>
<path d="M442.994 468.053H530.119C527.826 455.514 509.178 445.733 486.556 445.733C463.935 445.733 445.31 455.514 442.994 468.053Z" stroke="black" stroke-width="5" stroke-miterlimit="10"/>
<path d="M473.244 486.666C480.605 486.666 486.572 479.513 486.572 470.689C486.572 461.865 480.605 454.711 473.244 454.711C465.882 454.711 459.915 461.865 459.915 470.689C459.915 479.513 465.882 486.666 473.244 486.666Z" fill="black"/>
<path d="M552.168 495.645C576.37 495.645 595.99 484.472 595.99 470.689C595.99 456.906 576.37 445.733 552.168 445.733C527.966 445.733 508.346 456.906 508.346 470.689C508.346 484.472 527.966 495.645 552.168 495.645Z" fill="white" stroke="black" stroke-width="5" stroke-miterlimit="10"/>
<path d="M508.583 468.053H595.708C593.415 455.514 574.767 445.733 552.145 445.733C529.523 445.733 510.899 455.514 508.583 468.053Z" stroke="black" stroke-width="5" stroke-linejoin="round"/>
<path d="M538.839 486.666C546.2 486.666 552.168 479.513 552.168 470.689C552.168 461.865 546.2 454.711 538.839 454.711C531.478 454.711 525.511 461.865 525.511 470.689C525.511 479.513 531.478 486.666 538.839 486.666Z" fill="black"/>
<path d="M516.355 487.109L505.655 499.228C505.225 499.715 504.943 500.315 504.845 500.958C504.747 501.6 504.837 502.257 505.103 502.85C505.369 503.443 505.801 503.947 506.346 504.3C506.892 504.654 507.528 504.843 508.178 504.844H529.668C530.318 504.843 530.954 504.654 531.5 504.3C532.045 503.947 532.477 503.443 532.743 502.85C533.009 502.257 533.099 501.6 533.001 500.958C532.903 500.315 532.621 499.715 532.19 499.228L521.407 487.109C521.09 486.753 520.701 486.467 520.265 486.271C519.83 486.076 519.358 485.975 518.881 485.975C518.404 485.975 517.932 486.076 517.496 486.271C517.061 486.467 516.672 486.753 516.355 487.109Z" fill="black"/>
<path d="M529.676 545.824C539.157 535.113 551.444 527.267 565.15 523.17C578.856 519.073 593.435 518.89 607.24 522.641" stroke="black" stroke-width="5" stroke-linecap="round" stroke-linejoin="round"/>
<path d="M607.83 514.656C608.527 516.67 608.724 518.823 608.403 520.93C607.826 524.224 606.057 527.19 603.435 529.266" stroke="black" stroke-width="5" stroke-linecap="round" stroke-linejoin="round"/>
<path d="M548.316 424.842C564.755 424.842 579.879 421.098 591.932 414.825L561.56 362.866C555.217 352.008 538.801 352.008 532.458 362.866L502.713 413.755C515.04 420.678 530.967 424.842 548.316 424.842Z" fill="black"/>
<path d="M552.031 351.098C546.059 350.463 540.021 350.927 534.216 352.466C516.951 357.219 507.651 370.805 504.899 375.252C493.649 375.252 483.607 376.52 476.347 378.706C470.424 380.494 464.654 383.84 464.463 387.539C463.981 396.922 500.925 405.61 507.666 407.191C509.599 407.65 539.451 414.359 577.396 408.047C586.254 406.58 591.657 405.044 594.469 400.513C600.583 390.671 590.648 372.852 580.323 363.439C569.998 354.025 557.778 351.71 552.031 351.098Z" fill="white" stroke="black" stroke-width="5" stroke-miterlimit="10"/>
<rect x="796.139" y="243.876" width="33.2268" height="80.959" rx="10.3846" fill="#0B0B0B"/>
<path d="M768.692 300.305C765.611 300.656 762.912 298.246 762.912 295.146L762.912 273.566C762.912 270.465 765.611 268.056 768.692 268.407L812.3 273.369C814.924 273.668 816.906 275.888 816.906 278.528L816.906 290.183C816.906 292.824 814.924 295.044 812.3 295.342L768.692 300.305Z" fill="white" stroke="black" stroke-width="5" stroke-linejoin="round"/>
<rect x="557.937" y="63.9678" width="197.976" height="65.9666" rx="10" fill="black"/>
<rect x="895.898" y="5" width="411.952" height="609.686" rx="15" fill="#6C5CE7" stroke="black" stroke-width="10"/>
<path d="M1153.43 385.315C1138.78 391.168 1122.18 388.066 1111.14 377.453C1095.9 362.797 1099.88 342.082 1100.15 340.775C1101.24 341.073 1122.18 346.651 1125.76 340.065C1126.06 339.501 1126.24 338.883 1126.29 338.247C1126.35 337.612 1126.27 336.973 1126.08 336.367C1124.7 332.217 1117.11 330.116 1106.79 331.132C1123.6 321.803 1133.85 311.067 1131.75 304.014C1131.44 303.013 1130.91 302.088 1130.22 301.299C1129.53 300.51 1128.68 299.873 1127.73 299.43C1121.27 296.457 1110.15 303.38 1099.96 317.004C1108.18 300.759 1110.53 288.029 1105.72 284.193C1103.23 282.214 1099.48 283.146 1098.24 283.429C1089.61 285.561 1083.27 296.61 1082.06 311.174C1078.17 298.421 1071.19 290.749 1065.44 291.422C1062.28 291.789 1060.4 294.562 1060.23 294.822C1056.67 300.24 1060.23 310.586 1069.6 320.198C1064.03 314.536 1057.73 312.427 1053.87 314.605C1053.69 314.704 1051.44 316.011 1050.97 318.257C1049.93 323.239 1057.85 330.078 1070.08 335.618C1068 347.698 1069.23 360.117 1073.66 371.548C1078.09 382.979 1085.54 392.994 1095.22 400.521C1104.89 408.049 1116.43 412.807 1128.6 414.287C1140.77 415.767 1153.12 413.914 1164.32 408.926C1160.79 401.629 1157 392.674 1153.43 385.315Z" fill="white" stroke="black" stroke-width="5" stroke-linecap="square" stroke-linejoin="round"/>
<path d="M1299.65 518.507C1290.65 522.481 1286.22 532.162 1289.71 540.116L1309.53 584.97C1313.05 592.924 1323.19 596.156 1332.19 592.183C1341.18 588.209 1345.61 578.536 1342.12 570.574L1322.3 525.728C1318.78 517.766 1308.64 514.542 1299.65 518.507Z" fill="white" stroke="black" stroke-width="5" stroke-linejoin="round"/>
<path d="M1300.39 531.696L1272.87 535.554L1270.93 524.475L1270.79 449.997C1270.65 445.15 1268.61 440.552 1265.1 437.198C1261.6 433.843 1256.92 432.001 1252.07 432.069C1247.22 432.137 1242.59 434.111 1239.19 437.563C1235.78 441.014 1233.87 445.668 1233.87 450.517L1235.3 552.036C1235.57 556.89 1237.55 561.492 1240.89 565.026C1247.61 571.957 1256.77 571.139 1257.92 570.978C1278.15 568.77 1313.54 563.123 1317.35 562.161" fill="white"/>
<path d="M1300.39 531.696L1272.87 535.554L1270.93 524.475L1270.79 449.997C1270.65 445.15 1268.61 440.552 1265.1 437.198C1261.6 433.843 1256.92 432.001 1252.07 432.069C1247.22 432.137 1242.59 434.111 1239.19 437.563C1235.78 441.014 1233.87 445.668 1233.87 450.517L1235.3 552.036C1235.57 556.89 1237.55 561.491 1240.89 565.026C1247.61 571.957 1256.77 571.139 1257.92 570.978C1278.15 568.77 1313.54 563.123 1317.35 562.161" stroke="black" stroke-width="5" stroke-linecap="round" stroke-linejoin="round"/>
<path d="M1271.14 492.14L1225.44 499.763L1231.85 538.171L1277.55 530.549L1271.14 492.14Z" fill="black"/>
<path d="M1218.33 594.682C1217.56 592.389 1217.11 590.097 1215.35 588.019C1213 585.252 1209.82 583.313 1206.28 582.486C1205.58 567.395 1193.13 559.563 1193.13 544.472C1193.13 526.133 1202.36 509.965 1206.32 489.533C1208.39 478.835 1196.27 471.072 1187.86 471.072C1177.66 471.072 1172.91 479.958 1169.39 489.533C1162.14 509.308 1156.21 526.156 1156.21 544.472C1156.21 559.563 1168.66 567.395 1169.36 582.486C1168.82 582.593 1160.38 582.708 1159.83 582.815C1159.02 581.829 1151.43 572.882 1142.33 574.578C1139.7 575.092 1137.28 576.349 1135.34 578.2C1125.09 587.805 1128.15 610.04 1128.72 613.8C1154.97 614.021 1192.81 614.9 1219.06 615.121C1220.76 608.376 1220.51 601.287 1218.33 594.682Z" fill="white" stroke="black" stroke-width="5" stroke-miterlimit="10" stroke-linecap="round"/>
<path d="M1202.05 524.891L1158.03 510.53L1148.23 540.582L1192.25 554.944L1202.05 524.891Z" fill="black"/>
<path d="M1139.71 576.885C1146.34 577.588 1149.16 594.903 1149.55 597.302C1150.43 602.807 1150.43 608.416 1149.55 613.921L1128.05 613.57C1127.01 608.321 1124.1 590.647 1133.58 580.392C1134.93 578.933 1137.13 576.61 1139.71 576.885Z" fill="black"/>
<path d="M1159.21 583.312C1159.12 583.347 1159.04 583.399 1158.97 583.464C1158.89 583.549 1158.84 583.655 1158.83 583.769C1158.81 583.882 1158.83 583.997 1158.89 584.099C1160.67 587.568 1160.46 587.338 1160.58 587.514C1161.24 588.378 1162.36 590.517 1164.4 596.103C1164.95 592.633 1166.69 589.461 1169.31 587.125C1170.9 585.749 1172.77 584.735 1174.79 584.152C1171.7 583.946 1159.58 583.182 1159.21 583.312Z" fill="black"/>
<path d="M1163.23 585.322C1169.25 583.94 1175.49 583.761 1181.58 584.794L1163.23 585.322Z" fill="white"/>
<path d="M1163.23 585.322C1169.25 583.94 1175.49 583.761 1181.58 584.794" stroke="black" stroke-width="5" stroke-linecap="round" stroke-linejoin="round"/>
<path d="M1433.24 485.36C1433.1 486.292 1432.47 488.508 1428.55 490.877C1428.96 491.954 1430.13 495.378 1428.39 497.808C1426.1 501.055 1418.96 501.964 1412.17 497.746C1411.29 499.81 1409.45 503.21 1405.96 504.394C1403.12 505.357 1399.33 504.807 1392.01 499.565C1376.09 488.165 1375.37 477.406 1367.84 477.276C1361.28 477.146 1357.9 485.284 1350.18 483.855C1349.41 483.717 1346.16 483.091 1345.16 480.921C1343.77 477.826 1347.37 472.47 1354.73 467.786C1353.59 465.837 1350.63 460.076 1352.56 453.634C1353.79 449.859 1356.2 446.58 1359.44 444.282C1335.1 403.486 1315.53 456.255 1315.53 456.255L1300.88 430.207C1300.88 430.207 1310.32 401.576 1341.3 402.562C1366.7 403.371 1379.07 430.872 1382.7 440.767C1390.65 444.296 1397.83 449.374 1403.81 455.705C1408.1 460.297 1411.66 465.521 1414.37 471.194C1426.78 474.044 1433.99 480.416 1433.24 485.36Z" fill="white" stroke="black" stroke-width="5" stroke-linecap="round" stroke-linejoin="round"/>
<path d="M1404.06 488.752C1404.98 491.276 1406.53 493.521 1408.57 495.27C1410.86 497.265 1412.66 498.457 1414.25 499.022" fill="white"/>
<path d="M1404.06 488.752C1404.98 491.276 1406.53 493.521 1408.57 495.27C1410.86 497.265 1412.66 498.457 1414.25 499.022" stroke="black" stroke-width="5" stroke-linecap="round" stroke-linejoin="round"/>
<path d="M1411.85 482.77C1411.85 482.77 1422.15 490.212 1428.13 490.121L1411.85 482.77Z" fill="white"/>
<path d="M1411.85 482.77C1411.85 482.77 1422.15 490.212 1428.13 490.121" stroke="black" stroke-width="5" stroke-linecap="round" stroke-linejoin="round"/>
<path d="M1354.13 422.238C1354.13 431.193 1330.01 437.313 1328.11 445.688C1326.14 454.338 1345.16 470.3 1341.4 478.102C1337.58 486.033 1313.2 481.082 1307.78 487.89C1302.36 494.698 1312.54 517.4 1305.69 522.863C1298.84 528.326 1279.06 513.319 1271.12 517.147C1263.32 520.907 1262.72 545.779 1254.07 547.712C1245.66 549.622 1234.38 527.516 1225.42 527.516C1216.46 527.516 1205.15 549.622 1196.78 547.712C1188.13 545.748 1187.52 520.876 1179.72 517.147C1171.79 513.327 1151.97 528.303 1145.15 522.863C1138.33 517.423 1148.53 494.736 1143.06 487.89C1137.6 481.043 1113.26 486.033 1109.44 478.102C1105.68 470.3 1124.72 454.338 1122.74 445.688C1120.83 437.283 1096.75 431.17 1096.75 422.238C1096.75 413.305 1120.87 407.162 1122.74 398.787C1124.7 390.137 1105.68 374.183 1109.44 366.374C1113.26 358.45 1137.65 363.401 1143.06 356.585C1148.48 349.77 1138.3 327.076 1145.15 321.612C1152 316.149 1171.79 331.156 1179.72 327.335C1187.52 323.568 1188.13 298.697 1196.78 296.733C1205.18 294.83 1216.47 316.936 1225.42 316.936C1234.37 316.936 1245.69 294.83 1254.07 296.733C1262.72 298.697 1263.32 323.568 1271.12 327.335C1279.06 331.156 1298.88 316.172 1305.69 321.612C1312.5 327.053 1302.31 349.739 1307.78 356.585C1313.24 363.432 1337.58 358.45 1341.4 366.381C1345.16 374.183 1326.12 390.137 1328.11 398.787C1330.01 407.162 1354.13 413.29 1354.13 422.238Z" fill="white"/>
<path d="M1354.13 422.238C1354.13 431.193 1330.01 437.313 1328.11 445.688C1326.14 454.338 1345.16 470.3 1341.4 478.102C1337.58 486.033 1313.2 481.082 1307.78 487.89C1302.36 494.698 1312.54 517.4 1305.69 522.863C1298.84 528.326 1279.06 513.319 1271.12 517.147C1263.32 520.907 1262.72 545.779 1254.07 547.712C1245.66 549.622 1234.38 527.516 1225.42 527.516C1216.46 527.516 1205.15 549.622 1196.78 547.712C1188.13 545.748 1187.52 520.876 1179.72 517.147C1171.79 513.327 1151.97 528.303 1145.15 522.863C1138.33 517.423 1148.53 494.736 1143.06 487.89C1137.6 481.043 1113.26 486.033 1109.44 478.102C1105.68 470.3 1124.72 454.338 1122.74 445.688C1120.83 437.283 1096.75 431.17 1096.75 422.238C1096.75 413.305 1120.87 407.162 1122.74 398.787C1124.7 390.137 1105.68 374.183 1109.44 366.374C1113.26 358.45 1137.65 363.401 1143.06 356.585C1148.48 349.77 1138.3 327.076 1145.15 321.612C1152 316.149 1171.79 331.156 1179.72 327.335C1187.52 323.568 1188.13 298.697 1196.78 296.733C1205.18 294.83 1216.47 316.936 1225.42 316.936C1234.37 316.936 1245.69 294.83 1254.07 296.733C1262.72 298.697 1263.32 323.568 1271.12 327.335C1279.06 331.156 1298.88 316.172 1305.69 321.612C1312.5 327.053 1302.31 349.739 1307.78 356.585C1313.24 363.432 1337.58 358.45 1341.4 366.381C1345.16 374.183 1326.12 390.137 1328.11 398.787C1330.01 407.162 1354.13 413.29 1354.13 422.238Z" stroke="black" stroke-width="5" stroke-miterlimit="10"/>
<path d="M1146.16 444.679C1167.64 444.679 1185.06 427.266 1185.06 405.786C1185.06 384.306 1167.64 366.893 1146.16 366.893C1124.68 366.893 1107.26 384.306 1107.26 405.786C1107.26 427.266 1124.68 444.679 1146.16 444.679Z" fill="white" stroke="black" stroke-width="5" stroke-linejoin="round"/>
<path d="M1222.66 444.679C1244.14 444.679 1261.56 427.266 1261.56 405.786C1261.56 384.306 1244.14 366.893 1222.66 366.893C1201.17 366.893 1183.75 384.306 1183.75 405.786C1183.75 427.266 1201.17 444.679 1222.66 444.679Z" fill="white" stroke="black" stroke-width="5" stroke-linejoin="round"/>
<path d="M1199.39 414.298C1207.98 414.298 1214.95 407.333 1214.95 398.741C1214.95 390.149 1207.98 383.184 1199.39 383.184C1190.8 383.184 1183.83 390.149 1183.83 398.741C1183.83 407.333 1190.8 414.298 1199.39 414.298Z" fill="black"/>
<path d="M1122.9 414.298C1131.49 414.298 1138.46 407.333 1138.46 398.741C1138.46 390.149 1131.49 383.184 1122.9 383.184C1114.3 383.184 1107.34 390.149 1107.34 398.741C1107.34 407.333 1114.3 414.298 1122.9 414.298Z" fill="black"/>
<path d="M1175.48 448.309C1189.32 448.309 1200.54 440.93 1200.54 431.827C1200.54 422.724 1189.32 415.345 1175.48 415.345C1161.64 415.345 1150.42 422.724 1150.42 431.827C1150.42 440.93 1161.64 448.309 1175.48 448.309Z" fill="black"/>
<path d="M1253.27 357.991C1253.19 358.801 1247.32 358.824 1223.6 357.991C1200.15 357.158 1198.02 356.623 1197.66 355.278C1196.65 351.458 1210.01 341.998 1224.11 342.159C1234.71 342.289 1244.47 348.119 1244.04 350.075C1243.66 351.771 1235.63 350.893 1235.47 352.054C1235.27 353.811 1253.42 356.547 1253.27 357.991Z" fill="black"/>
<path d="M1174.45 374.159C1171.81 377.98 1157.89 372.631 1148.82 369.085C1140 365.67 1125.26 359.962 1125.94 355.186C1126.62 350.411 1142.35 346.162 1155.17 351.045C1168.28 356.034 1177.17 370.216 1174.45 374.159Z" fill="black"/>
<path d="M1232.5 430.963C1228.14 434.395 1223.54 437.518 1218.74 440.308C1213.8 443.181 1208.67 445.692 1203.36 447.819C1199.8 449.256 1196.23 453.642 1196.49 457.799C1196.76 462.315 1202.19 466.563 1209.77 468.091C1218.41 468.306 1226.91 465.848 1234.1 461.054C1239.35 457.486 1243.71 452.756 1246.83 447.231C1250.06 441.424 1249.88 435.074 1246.68 431.842C1242.56 427.678 1234.47 429.412 1232.5 430.963Z" fill="white" stroke="black" stroke-width="5" stroke-linejoin="round"/>
<path d="M1213.28 443.319L1218.34 467.19" stroke="black" stroke-width="5" stroke-linejoin="round"/>
<path d="M1223.59 437.405L1244.96 451.579" stroke="black" stroke-width="5" stroke-linejoin="round"/>
<path d="M1104.61 255.09C1116.35 245.822 1142.82 223.762 1137.87 213.913C1137.57 213.317 1137.16 212.783 1136.66 212.339C1126.63 202.734 1081.31 222.646 1044.03 250.758C1030.38 261.058 994.357 288.199 1000.61 304.681C1001.19 306.209 1002.14 307.699 1004.61 309.915C1018.13 322.141 1049.86 332.518 1076.15 316.655C1096.39 304.444 1107.55 280.191 1104.61 255.09Z" fill="#FBFBFB" stroke="black" stroke-width="5" stroke-linejoin="round"/>
<path d="M1374.11 575.792L1398.95 607.518L1437.92 596.057" fill="white"/>
<path d="M1374.11 575.792L1398.95 607.518L1437.92 596.057" stroke="black" stroke-width="5" stroke-linecap="round" stroke-linejoin="round"/>
<path d="M1409.35 605.218L1409.11 605.982C1409.08 606.015 1409.06 606.051 1409.04 606.089C1408.83 606.57 1408.55 607.018 1408.22 607.419C1407.4 608.383 1406.43 609.193 1405.33 609.81C1402.94 611.178 1400.36 612.187 1397.68 612.806C1397.57 612.838 1397.46 612.836 1397.35 612.8C1397.24 612.765 1397.14 612.698 1397.07 612.607C1395.53 610.866 1394.19 608.953 1393.08 606.907C1392.38 605.648 1391.89 604.283 1391.63 602.865C1391.42 601.856 1391.5 600.809 1391.85 599.841C1392.2 598.873 1392.81 598.02 1393.62 597.378C1394.19 596.879 1394.88 596.526 1395.61 596.347C1396.35 596.169 1397.12 596.171 1397.86 596.354C1398.6 596.537 1399.28 596.896 1399.85 597.398C1400.42 597.901 1400.86 598.534 1401.13 599.243C1401.25 599.503 1401.32 599.77 1401.41 600.007L1401.53 599.923C1401.81 599.705 1402.11 599.506 1402.41 599.327C1403.16 598.885 1404.02 598.667 1404.89 598.698C1405.75 598.729 1406.59 599.008 1407.31 599.503C1408.04 599.99 1408.64 600.664 1409.02 601.457C1409.41 602.249 1409.59 603.13 1409.52 604.011C1409.49 604.416 1409.44 604.82 1409.35 605.218Z" fill="black"/>
<g filter="url(#filter0_d_113_1973)">
<ellipse cx="947.393" cy="291.352" rx="23.4972" ry="23.4881" fill="white"/>
<ellipse cx="947.393" cy="291.352" rx="23.4972" ry="23.4881" stroke="black" stroke-width="5"/>
</g>
<rect x="1002.89" y="63.9678" width="197.976" height="65.9666" rx="10" fill="black"/>
<rect x="1342.85" y="5" width="411.952" height="609.686" rx="15" fill="#FDCB6E" stroke="black" stroke-width="10"/>
<path d="M1701.25 410.624C1727.81 412.465 1748.88 431.892 1752.12 454.963C1756.04 482.923 1733.23 512.143 1700.22 514.59L1690.28 487.77C1711.03 488.567 1725.32 471.586 1723.4 457.45C1721.89 446.361 1710.28 436.1 1695.21 435.107L1701.25 410.624Z" fill="white" stroke="black" stroke-width="5" stroke-miterlimit="10"/>
<path d="M1718.22 442.431L1724.65 415.404C1718.41 412.609 1711.72 410.939 1704.9 410.471L1698.85 434.954C1705.93 435.352 1712.71 437.968 1718.22 442.431Z" fill="black"/>
<path d="M1460.65 523.437L1474.84 590.426C1475.34 592.796 1477.67 594.31 1480.04 593.808L1516.28 586.134C1518.65 585.632 1520.16 583.303 1519.66 580.933L1505.47 513.945C1504.97 511.575 1502.64 510.06 1500.27 510.562L1464.03 518.237C1461.66 518.739 1460.15 521.067 1460.65 523.437Z" fill="white" stroke="black" stroke-width="5" stroke-linejoin="round"/>
<path d="M1477.58 591.687L1494.11 551.527L1462.63 521.109" fill="white"/>
<path d="M1477.58 591.687L1494.11 551.527L1462.63 521.109" stroke="black" stroke-width="5" stroke-linecap="round" stroke-linejoin="round"/>
<path d="M1486.42 543.002L1487.29 542.815C1487.33 542.822 1487.38 542.822 1487.43 542.815C1487.99 542.759 1488.56 542.78 1489.11 542.877C1490.45 543.128 1491.73 543.615 1492.89 544.316C1495.46 545.834 1497.79 547.72 1499.81 549.914C1499.9 550.002 1499.96 550.116 1499.99 550.239C1500.01 550.363 1500 550.491 1499.95 550.606C1499.14 552.982 1498.05 555.255 1496.72 557.38C1495.92 558.708 1494.9 559.893 1493.71 560.888C1492.87 561.627 1491.85 562.118 1490.75 562.305C1489.65 562.492 1488.52 562.368 1487.48 561.947C1486.71 561.676 1486.01 561.222 1485.45 560.625C1484.89 560.027 1484.49 559.304 1484.27 558.516C1484.05 557.727 1484.02 556.897 1484.19 556.096C1484.35 555.295 1484.71 554.547 1485.23 553.914C1485.41 553.671 1485.63 553.457 1485.83 553.222L1485.7 553.159C1485.34 553.01 1484.99 552.839 1484.66 552.647C1483.85 552.18 1483.19 551.492 1482.76 550.663C1482.33 549.834 1482.15 548.9 1482.23 547.97C1482.29 547.021 1482.61 546.106 1483.15 545.32C1483.68 544.533 1484.41 543.903 1485.27 543.493C1485.65 543.31 1486.03 543.146 1486.42 543.002Z" fill="black"/>
<path d="M1659.92 527.938H1646.3C1639.76 527.938 1634.46 533.242 1634.46 539.784V598.364C1634.46 604.906 1639.76 610.21 1646.3 610.21H1659.92C1666.47 610.21 1671.77 604.906 1671.77 598.364V539.784C1671.77 533.242 1666.47 527.938 1659.92 527.938Z" fill="white" stroke="black" stroke-width="5" stroke-linejoin="round"/>
<path d="M1644.23 549.72C1636.13 550.465 1627.96 549.938 1620.01 548.156C1608.63 545.582 1590.34 541.451 1585.17 527.35C1579.64 512.314 1592.83 496.212 1594.17 494.572L1564.41 495.264C1562.27 498.447 1554.07 511.38 1557.23 527.578C1559.46 539.023 1566.22 546.26 1570.09 550.281C1579.56 560.134 1590.11 563.718 1600.32 567.053C1614.24 571.555 1628.88 573.409 1643.48 572.52" fill="white"/>
<path d="M1644.23 549.72C1636.13 550.465 1627.96 549.938 1620.01 548.156C1608.63 545.582 1590.34 541.451 1585.17 527.35C1579.64 512.314 1592.83 496.212 1594.17 494.572L1564.41 495.264C1562.27 498.447 1554.07 511.38 1557.23 527.578C1559.46 539.023 1566.22 546.26 1570.09 550.281C1579.56 560.134 1590.11 563.718 1600.32 567.053C1614.24 571.555 1628.88 573.409 1643.48 572.52" stroke="black" stroke-width="5" stroke-linecap="round" stroke-linejoin="round"/>
<path d="M1606.79 513.169L1567.39 577.575C1565.96 577.416 1540.3 574.98 1526.68 593.662C1523.57 597.966 1521.41 602.874 1520.32 608.069C1520.15 608.859 1520.17 609.678 1520.37 610.46C1520.58 611.242 1520.96 611.966 1521.5 612.572C1522.03 613.178 1522.7 613.65 1523.45 613.949C1524.2 614.249 1525.01 614.368 1525.82 614.296L1608.31 613.949C1608.31 613.949 1616.46 589.483 1600.03 582.764L1633.5 510.242L1606.79 513.169Z" fill="white" stroke="black" stroke-width="5" stroke-linejoin="round"/>
<path d="M1447.47 561.497C1448.11 562.106 1449.83 563.386 1454.08 562.881C1454.39 563.912 1455.47 567.109 1458.14 567.919C1461.71 569.005 1467.48 565.642 1470.11 558.66C1471.93 559.691 1475.23 561.158 1478.48 560.044C1481.13 559.138 1483.63 556.585 1486.06 548.537C1491.36 531.052 1485.78 522.686 1491.27 518.306C1496.05 514.487 1503.16 518.597 1508.08 513.137C1508.54 512.625 1510.63 510.3 1510.15 508.121C1509.46 505.035 1503.72 503.111 1495.62 503.831C1495.35 501.755 1494.28 495.797 1489.18 492.123C1486.13 490.042 1482.49 488.992 1478.8 489.127C1473.62 445.106 1518.1 473.032 1518.1 473.032L1514.14 445.424C1514.14 445.424 1490.86 429.606 1468.5 447.942C1450.17 462.978 1456.66 490.359 1459.58 499.721C1455.7 506.85 1453.28 514.68 1452.45 522.755C1451.89 528.596 1452.22 534.488 1453.44 540.227C1445.84 549.471 1444.11 558.266 1447.47 561.497Z" fill="white" stroke="black" stroke-width="5" stroke-linecap="round" stroke-linejoin="round"/>
<path d="M1471 547.423C1471.75 549.812 1471.88 552.355 1471.36 554.806C1470.81 557.574 1470.14 559.491 1469.29 560.812" fill="white"/>
<path d="M1471 547.423C1471.75 549.812 1471.88 552.355 1471.36 554.806C1470.81 557.574 1470.14 559.491 1469.29 560.812" stroke="black" stroke-width="5" stroke-linecap="round" stroke-linejoin="round"/>
<path d="M1461.83 547.417C1461.83 547.417 1458.44 558.779 1453.96 562.114L1461.83 547.417Z" fill="white"/>
<path d="M1461.83 547.417C1461.83 547.417 1458.44 558.779 1453.96 562.114" stroke="black" stroke-width="5" stroke-linecap="round" stroke-linejoin="round"/>
<path d="M1694.35 318.778H1532.09C1521.16 318.778 1512.31 327.632 1512.31 338.554V500.787C1512.31 511.708 1521.16 520.562 1532.09 520.562H1694.35C1705.27 520.562 1714.13 511.708 1714.13 500.787V338.554C1714.13 327.632 1705.27 318.778 1694.35 318.778Z" fill="white" stroke="black" stroke-width="5" stroke-linejoin="round"/>
<path d="M1537.71 447.154C1560.48 447.154 1578.94 428.7 1578.94 405.935C1578.94 383.17 1560.48 364.716 1537.71 364.716C1514.94 364.716 1496.48 383.17 1496.48 405.935C1496.48 428.7 1514.94 447.154 1537.71 447.154Z" fill="black"/>
<path d="M1537.98 441.155C1557.44 441.155 1573.21 425.387 1573.21 405.935C1573.21 386.484 1557.44 370.715 1537.98 370.715C1518.53 370.715 1502.75 386.484 1502.75 405.935C1502.75 425.387 1518.53 441.155 1537.98 441.155Z" fill="white" stroke="black" stroke-width="5" stroke-linejoin="round"/>
<path d="M1608.09 447.154C1630.86 447.154 1649.32 428.7 1649.32 405.935C1649.32 383.17 1630.86 364.716 1608.09 364.716C1585.33 364.716 1566.87 383.17 1566.87 405.935C1566.87 428.7 1585.33 447.154 1608.09 447.154Z" fill="black"/>
<path d="M1607.85 441.155C1627.3 441.155 1643.07 425.387 1643.07 405.935C1643.07 386.484 1627.3 370.715 1607.85 370.715C1588.39 370.715 1572.62 386.484 1572.62 405.935C1572.62 425.387 1588.39 441.155 1607.85 441.155Z" fill="white" stroke="black" stroke-width="5" stroke-linejoin="round"/>
<path d="M1521.19 412.882C1516.42 412.867 1511.86 410.967 1508.48 407.596C1505.11 404.226 1503.21 399.658 1503.2 394.891H1539.13C1539.12 399.648 1537.22 404.208 1533.86 407.577C1530.5 410.946 1525.95 412.852 1521.19 412.882Z" fill="black"/>
<path d="M1591.05 412.882C1586.28 412.867 1581.71 410.967 1578.34 407.596C1574.97 404.226 1573.07 399.658 1573.06 394.891H1608.99C1608.97 399.648 1607.08 404.208 1603.72 407.577C1600.36 410.946 1595.81 412.852 1591.05 412.882Z" fill="black"/>
<path d="M1571.94 418.376H1546.13C1540.15 418.376 1535.3 423.224 1535.3 429.205V441.667C1535.3 447.647 1540.15 452.496 1546.13 452.496H1571.94C1577.92 452.496 1582.77 447.647 1582.77 441.667V429.205C1582.77 423.224 1577.92 418.376 1571.94 418.376Z" fill="black"/>
<path d="M1629.96 355.54C1628.79 359.588 1615.29 358.917 1606.49 358.481C1597.94 358.052 1583.65 357.339 1582.86 353.036C1582.07 348.732 1594.41 340.581 1606.81 341.162C1619.51 341.722 1631.18 351.382 1629.96 355.54Z" fill="black"/>
<path d="M1558.91 355.54C1557.73 359.588 1544.23 358.917 1535.43 358.481C1526.88 358.052 1512.6 357.339 1511.81 353.036C1511.02 348.732 1523.35 340.581 1535.76 341.162C1548.44 341.722 1560.12 351.382 1558.91 355.54Z" fill="black"/>
<path d="M1498.28 394.891H1572.32" stroke="black" stroke-width="5" stroke-linejoin="round"/>
<path d="M1569.33 395.188H1643.37" stroke="black" stroke-width="5" stroke-linejoin="round"/>
<path d="M1647.55 394.891L1713.83 386.533" stroke="black" stroke-width="5" stroke-linejoin="round"/>
<path d="M1633.9 288.055C1620.94 284.132 1590.87 275.863 1586.09 284.658C1585.8 285.186 1585.62 285.763 1585.54 286.36C1583.59 298.815 1621.85 322.154 1662.03 335.301C1676.76 340.145 1715.58 352.821 1724.59 339.66C1725.42 338.435 1726.03 336.948 1726.41 333.979C1728.48 317.608 1719.78 288.657 1694.39 277.337C1674.87 268.618 1651.04 272.874 1633.9 288.055Z" fill="#FBFBFB" stroke="black" stroke-width="5" stroke-linejoin="round"/>
<path d="M1567.84 462.052L1649.64 460.861L1567.84 462.052Z" fill="#FBFBFB"/>
<path d="M1567.84 462.052L1649.64 460.861" stroke="black" stroke-width="5" stroke-linejoin="round"/>
<path d="M1602.47 318.778C1605.58 322.806 1609.19 326.417 1613.22 329.524C1637.13 347.881 1668.09 341.82 1676.2 339.965C1664.17 336.326 1651.48 331.911 1638.28 326.535C1632.06 324.011 1626.09 321.426 1620.37 318.778H1602.47Z" fill="black"/>
<rect x="1413.07" y="324.835" width="33.2268" height="80.959" rx="10.3846" transform="rotate(-180 1413.07 324.835)" fill="#0B0B0B"/>
<path d="M1440.52 268.407C1443.6 268.057 1446.3 270.466 1446.3 273.566L1446.3 295.147C1446.3 298.247 1443.6 300.656 1440.52 300.306L1396.91 295.343C1394.28 295.044 1392.3 292.824 1392.3 290.184L1392.3 278.529C1392.3 275.889 1394.28 273.669 1396.91 273.37L1440.52 268.407Z" fill="white" stroke="black" stroke-width="5" stroke-linejoin="round"/>
<rect x="1449.83" y="63.9678" width="197.976" height="65.9666" rx="10" fill="black"/>
<defs>
<filter id="filter0_d_113_1973" x="921.396" y="265.364" width="55.9941" height="55.9761" filterUnits="userSpaceOnUse" color-interpolation-filters="sRGB">
<feFlood flood-opacity="0" result="BackgroundImageFix"/>
<feColorMatrix in="SourceAlpha" type="matrix" values="0 0 0 0 0 0 0 0 0 0 0 0 0 0 0 0 0 0 127 0" result="hardAlpha"/>
<feOffset dx="4" dy="4"/>
<feComposite in2="hardAlpha" operator="out"/>
<feColorMatrix type="matrix" values="0 0 0 0 0 0 0 0 0 0 0 0 0 0 0 0 0 0 1 0"/>
<feBlend mode="normal" in2="BackgroundImageFix" result="effect1_dropShadow_113_1973"/>
<feBlend mode="normal" in="SourceGraphic" in2="effect1_dropShadow_113_1973" result="shape"/>
</filter>
</defs>
</svg>
